<svg width="295" height="280" viewBox="0 0 295 280" fill="none" xmlns="http://www.w3.org/2000/svg">
<path opacity="0.2" d="M294.038 133.629L293.831 221.726C293.831 223.946 293.139 225.506 292.033 226.246L267.536 242.581C267.628 242.528 267.697 242.449 267.79 242.396C266.637 243.321 265.001 243.321 263.134 242.078L88.428 126.387C85.0173 124.14 82.2749 118.669 82.2749 114.175L82.5054 26.1048C82.5054 23.8581 83.1967 22.2987 84.3029 21.5586L108.8 5.25019C109.906 4.48367 111.473 4.5894 113.179 5.72596L287.908 121.418C288.853 122.052 289.775 122.951 290.581 124.034C291.549 125.277 292.379 126.783 292.978 128.316C293.646 130.087 294.038 131.937 294.038 133.629V133.629Z" fill="black"/>
<path d="M294.037 128.871L293.829 216.968C293.829 219.189 293.138 220.748 292.032 221.488L267.535 237.823C268.641 237.083 269.332 235.523 269.332 233.277L269.539 145.206C269.562 143.488 269.171 141.664 268.479 139.893C267.88 138.334 267.051 136.854 266.106 135.585C265.276 134.528 264.377 133.629 263.409 132.995L88.6799 17.3031C86.9745 16.1665 85.4305 16.0608 84.3013 16.8009L108.798 0.492501C109.905 -0.274019 111.472 -0.168295 113.177 0.968269L287.907 116.66C288.851 117.294 289.773 118.193 290.58 119.277C291.548 120.519 292.377 122.026 292.977 123.559C293.645 125.33 294.037 127.18 294.037 128.871V128.871Z" fill="#F3BB7D"/>
<path d="M263.409 132.995C266.797 135.242 269.562 140.713 269.539 145.206L269.332 233.277C269.309 237.77 266.543 239.594 263.132 237.321L88.426 121.629C85.0153 119.383 82.2729 113.911 82.2729 109.418L82.5034 21.3472C82.5034 16.8538 85.2919 15.0301 88.6795 17.3032L263.409 132.995Z" fill="#CD7C22"/>
<path d="M101.311 95.8054L98.0384 77.171C100.865 62.0168 102.409 54.3781 102.671 54.2547C102.916 54.149 108.739 55.9199 120.139 59.5675L130.993 86.3957L123.711 101.541L138.736 133.92L93.2681 104.528L101.311 95.8054Z" fill="#443535"/>
<path d="M134.013 87.9553C130.433 90.3342 126.861 92.713 123.297 95.0919C122.075 95.9112 120.6 96.2548 118.987 96.0963L129.703 88.9597C131.317 89.1183 132.791 88.7747 134.013 87.9553Z" fill="#686868"/>
<path d="M104.469 57.9553L115.185 50.8187C112.788 52.4046 111.313 55.7879 111.313 60.5985C111.29 64.2725 112.143 68.2372 113.595 72.017L102.879 79.1536C101.427 75.3738 100.574 71.4091 100.597 67.735C100.597 62.9245 102.072 59.5412 104.469 57.9553V57.9553Z" fill="#F88200"/>
<path d="M119.402 82.1139L113.986 103.92L103.27 111.057L108.686 89.2769C108.471 88.9949 108.256 88.713 108.041 88.4311C107.995 88.3782 107.949 88.3253 107.902 88.2725C107.795 88.1315 107.687 87.9905 107.58 87.8496C107.426 87.6205 107.265 87.3914 107.096 87.1623C106.988 87.0038 106.888 86.8452 106.796 86.6866C106.627 86.4575 106.466 86.2196 106.312 85.9729C106.22 85.8143 106.12 85.6557 106.013 85.4972C105.875 85.2505 105.729 85.0038 105.575 84.7571C105.483 84.5985 105.391 84.4399 105.298 84.2813C105.16 84.017 105.022 83.7526 104.884 83.4883C104.791 83.3297 104.707 83.1712 104.63 83.0126C104.476 82.7306 104.33 82.4487 104.192 82.1667C104.131 82.0258 104.062 81.8848 103.985 81.7438C103.8 81.3562 103.631 80.9685 103.478 80.5808C103.447 80.528 103.424 80.4751 103.409 80.4223C103.224 79.9993 103.048 79.5764 102.879 79.1535C101.427 75.3738 100.574 71.409 100.597 67.735C100.597 62.9245 102.072 59.5412 104.469 57.9553C108.033 55.5764 111.605 53.1976 115.185 50.8187C112.788 52.4046 111.313 55.7879 111.313 60.5985C111.29 64.6689 112.35 69.1359 114.125 73.2857C114.125 73.3033 114.125 73.3121 114.125 73.3121C114.309 73.7526 114.501 74.1844 114.701 74.6073C114.762 74.7306 114.824 74.854 114.885 74.9773C115.039 75.2769 115.192 75.5764 115.346 75.876C115.423 76.0346 115.5 76.1844 115.577 76.3253C115.73 76.6073 115.876 76.8804 116.014 77.1447C116.107 77.3033 116.199 77.4619 116.291 77.6205C116.445 77.8672 116.598 78.1139 116.752 78.3606C116.844 78.5192 116.936 78.6778 117.028 78.8364C117.182 79.083 117.343 79.3209 117.512 79.55C117.605 79.7086 117.704 79.8584 117.812 79.9994C117.981 80.2461 118.15 80.4839 118.319 80.713C118.411 80.854 118.511 80.9949 118.619 81.1359C118.88 81.4707 119.141 81.7967 119.402 82.1139V82.1139Z" fill="#686868"/>
<path d="M138.552 66.2019L138.737 133.92L124.633 126.334L118.987 96.0962C123.78 96.5984 127.145 92.5808 127.168 85.3385C127.191 75.6644 121.245 63.8759 113.917 59.0125C106.589 54.149 100.62 58.0609 100.597 67.7349C100.574 75.0037 103.915 83.4354 108.686 89.2768L103.27 111.057L90.9179 104.079L90.7104 36.3605L138.552 66.2019Z" fill="#CD7C22"/>
<path d="M151.158 123.796L163.717 132.122V137.884L159.5 140.713V134.951L146.917 126.625L147.009 95.1179L141.34 91.3646L145.558 88.5629L151.227 92.3162L151.158 123.796Z" fill="#821919"/>
<path d="M180.794 141.902L176.576 144.73C175.532 145.418 174.18 145.206 172.52 144.096C171.537 143.444 170.661 142.625 169.893 141.638C169.171 140.686 168.549 139.585 168.027 138.334C167.965 138.175 167.904 138.008 167.842 137.832C166.905 135.4 166.437 132.801 166.437 130.034L166.46 123.268C166.46 120.343 166.997 118.307 168.073 117.162C168.226 116.986 168.388 116.845 168.557 116.739L172.797 113.911C172.613 114.034 172.444 114.175 172.29 114.334C171.23 115.497 170.692 117.541 170.677 120.466L170.654 127.232C170.654 129.999 171.122 132.598 172.06 135.03C172.121 135.188 172.19 135.347 172.267 135.506C172.789 136.774 173.412 137.884 174.134 138.836C174.886 139.823 175.754 140.642 176.738 141.294C178.412 142.387 179.764 142.589 180.794 141.902Z" fill="#821919"/>
<path d="M186.602 121.708C187.954 125.233 188.63 128.783 188.63 132.36L188.607 139.074C188.591 143.638 187.485 146.686 185.288 148.219C185.257 148.237 185.227 148.255 185.196 148.272L180.979 151.1C181.009 151.083 181.04 151.065 181.071 151.048C183.268 149.514 184.374 146.457 184.389 141.876V135.188C184.405 131.594 183.736 128.043 182.384 124.536C182.016 123.585 181.593 122.633 181.117 121.682C180.21 119.832 179.196 118.175 178.075 116.713C176.462 114.616 174.626 112.88 172.567 111.506C169.172 109.25 166.391 108.845 164.225 110.29L168.465 107.462C170.616 106.034 173.389 106.448 176.784 108.704C178.843 110.061 180.679 111.788 182.292 113.884C183.414 115.365 184.428 117.021 185.334 118.854C185.81 119.805 186.233 120.757 186.602 121.708V121.708Z" fill="#821919"/>
<path d="M209.048 160.801L204.83 163.629C204.4 163.876 203.786 163.911 202.987 163.735C202.188 163.576 201.128 163.056 199.806 162.175C198.823 161.523 197.94 160.686 197.156 159.664C196.48 158.783 195.881 157.752 195.359 156.572C195.236 156.307 195.121 156.034 195.013 155.752C194.153 153.497 193.73 151.109 193.746 148.589V140.765C193.761 137.999 194.299 136.087 195.359 135.03C195.497 134.889 195.643 134.765 195.797 134.66L200.037 131.832C199.883 131.937 199.73 132.061 199.576 132.202C198.516 133.259 197.986 135.18 197.986 137.964L197.963 145.787C197.947 148.307 198.378 150.695 199.253 152.95C199.361 153.215 199.476 153.488 199.599 153.77C200.106 154.933 200.705 155.964 201.397 156.862C202.165 157.867 203.04 158.695 204.024 159.347C205.345 160.228 206.405 160.757 207.204 160.933C208.018 161.109 208.633 161.065 209.048 160.801V160.801Z" fill="#821919"/>
<path d="M204.069 145.444L214.739 152.501L214.693 166.563C214.509 166.757 214.302 166.933 214.071 167.091L209.854 169.893C210.084 169.752 210.292 169.576 210.476 169.365L210.522 155.329L199.829 148.246L204.069 145.444Z" fill="#821919"/>
<path d="M191.28 128.184L195.52 125.356C197.625 123.911 200.337 124.281 203.655 126.466C205.99 128.017 207.957 129.84 209.555 131.937C210.292 132.906 210.953 133.937 211.537 135.03C212.044 135.964 212.474 136.898 212.827 137.832C213.81 140.369 214.31 142.959 214.325 145.602L214.279 145.735L210.062 148.536L210.108 148.404C210.092 145.761 209.593 143.18 208.61 140.66C208.241 139.708 207.811 138.765 207.319 137.832C206.735 136.739 206.075 135.708 205.337 134.739C203.74 132.66 201.765 130.845 199.415 129.294C196.112 127.091 193.4 126.721 191.28 128.184Z" fill="#821919"/>
<path d="M220.017 137.858L225.686 141.611L225.594 178.854L221.353 181.682L221.446 144.413L215.776 140.66L220.017 137.858Z" fill="#821919"/>
<path d="M248.34 182.105L248.455 182.131L244.238 184.959L244.122 184.907L236.955 164.078L236.909 186.36L232.692 189.162L232.738 163.735L236.079 161.514L232.784 151.92L227.092 148.166L231.332 145.338L237.001 149.092L248.34 182.105Z" fill="#821919"/>
<path d="M254.17 160.484L254.078 197.726L249.861 200.554L249.953 163.285L244.307 159.559L248.524 156.73L254.17 160.484Z" fill="#821919"/>
<path d="M249.953 163.285L249.86 200.554L244.214 196.801L232.853 163.788L232.738 163.735L232.692 189.162L227 185.409L227.092 148.167L232.784 151.92L244.122 184.907L244.237 184.959L244.307 159.559L249.953 163.285Z" fill="white"/>
<path d="M147.009 95.118L146.917 126.625L159.5 134.951V140.713L141.248 128.607L141.34 91.3647L147.009 95.118Z" fill="white"/>
<path fill-rule="evenodd" clip-rule="evenodd" d="M181.117 121.682C183.314 126.122 184.404 130.625 184.389 135.188V141.876C184.374 146.457 183.267 149.514 181.071 151.048C178.858 152.581 176.001 152.184 172.498 149.858C169.01 147.55 166.183 144.184 164.017 139.761C161.851 135.338 160.775 130.836 160.791 126.255L160.814 119.567C160.814 115.003 161.905 111.946 164.086 110.396C166.268 108.827 169.095 109.197 172.567 111.506C176.07 113.832 178.92 117.224 181.117 121.682V121.682ZM178.72 138.149V131.382C178.735 128.492 178.19 125.744 177.084 123.136C175.993 120.545 174.487 118.616 172.567 117.347C170.631 116.078 169.133 116.017 168.073 117.162C166.998 118.307 166.46 120.343 166.46 123.268L166.437 130.034C166.437 132.995 166.967 135.761 168.027 138.334C169.102 140.907 170.6 142.827 172.521 144.096C174.457 145.382 175.97 145.453 177.061 144.307C178.151 143.162 178.705 141.109 178.72 138.149V138.149Z" fill="white"/>
<path d="M199.414 129.294C202.855 131.567 205.49 134.413 207.319 137.832C209.147 141.268 210.076 144.792 210.107 148.404L210.061 148.536L204.737 144.995C204.63 142.951 204.154 141.074 203.309 139.365C202.448 137.638 201.196 136.237 199.552 135.162C197.816 133.999 196.418 133.955 195.358 135.03C194.298 136.087 193.76 137.999 193.745 140.766V148.589C193.729 151.426 194.267 154.087 195.358 156.572C196.464 159.074 197.947 160.942 199.806 162.175C201.127 163.056 202.187 163.576 202.986 163.735C203.785 163.911 204.399 163.876 204.83 163.629V156.73L199.829 153.426V148.246L210.522 155.329L210.476 169.365C209.631 170.281 208.317 170.721 206.535 170.686C204.753 170.651 202.502 169.735 199.783 167.937C196.326 165.647 193.514 162.36 191.348 158.078C189.166 153.796 188.076 149.391 188.076 144.862L188.099 137.092C188.114 132.598 189.174 129.629 191.279 128.184C193.399 126.721 196.111 127.092 199.414 129.294V129.294Z" fill="white"/>
<path d="M221.446 144.413L221.354 181.682L215.685 177.929L215.777 140.66L221.446 144.413Z" fill="white"/>
<path opacity="0.2" d="M62.084 253.54C60.2173 255.655 55.1474 259.012 48.9943 260.756C49.2247 261.866 48.856 263.109 47.8651 263.717L23.9901 278.518C21.6626 279.972 18.7819 279.787 16.5926 278.069L11.6609 274.157C9.97859 272.836 10.0708 269.954 11.8222 268.765L32.4478 254.73C34.1531 253.567 36.1581 253.197 38.0478 253.646C38.0939 253.611 38.1399 253.576 38.186 253.54C43.6862 249.329 47.5885 246.351 49.8931 244.606C57.3597 238.95 62.4066 236.809 65.656 236.095L121.679 197.082L131.566 203.135L63.121 249.681C63.7894 250.369 63.8585 251.505 62.084 253.54V253.54Z" fill="black"/>
<path d="M39.9372 248.069C39.4763 247.725 39.4763 247.435 39.5454 247.223C39.6146 247.012 40.375 245.505 40.6285 245.347C40.7975 245.241 41.2661 245.717 42.0343 246.774C40.9281 247.866 40.2291 248.298 39.9372 248.069V248.069Z" fill="#231F20"/>
<path d="M63.8585 233.69C63.1825 235.065 63.2747 235.734 64.135 235.699C64.6574 235.681 65.7482 235.426 67.4074 234.932C68.721 234.457 70.3803 234.245 70.8181 235.329C70.9564 235.611 71.0255 235.84 71.0255 236.016C71.0486 236.862 71.233 236.122 70.3342 237.285C69.1819 238.571 68.2371 239.487 67.4996 240.034C66.1169 241.038 65.3564 241.17 64.8725 241.197C64.2118 241.144 63.6895 241.17 63.3054 241.276C62.6371 241.487 62.9136 242.413 63.0058 243.179L61.07 244.421C59.0651 245.373 57.1984 243.549 57.1292 242.968L56.4609 236.941L63.8585 233.69Z" fill="#231F20"/>
<path d="M63.9968 240.959C64.5729 240.853 65.2182 240.642 66.8774 239.849C67.7992 239.408 68.8977 238.527 70.1729 237.206C70.6338 236.703 70.9795 236.122 70.9334 235.62C70.9795 235.805 71.0025 235.99 71.0256 236.095C71.1639 236.862 70.6338 237.364 70.1729 237.813C69.1896 238.924 68.3062 239.69 67.5227 240.113C65.9787 240.932 65.7252 240.932 65.0108 241.065C64.4116 241.188 63.9123 241.285 63.5128 241.355C63.2593 241.408 62.8906 241.646 62.9136 241.725C62.9136 241.699 62.9367 241.144 63.9968 240.959V240.959Z" fill="#231F20"/>
<path d="M61.0008 243.761L62.9136 242.518C62.9366 242.756 62.9827 243.02 63.0058 243.258L61.07 244.527C59.065 245.452 57.1983 243.628 57.1522 243.047L57.0601 242.28C57.1292 242.862 58.9728 244.686 61.0008 243.761V243.761Z" fill="#231F20"/>
<path d="M44.2468 194.598C44.4926 197.241 44.6078 198.844 44.5925 199.408C44.5464 200.333 44.0163 201.972 43.4863 202.501C42.6567 203.664 41.8731 204.131 41.1357 203.901C39.6915 203.461 39.0463 202.888 39.1999 202.183L39.9373 199.514L39.5686 196.765L39.3843 194.518L40.9513 189.443C42.0575 189.02 43.9472 193.435 44.2468 194.598Z" fill="#F2D9CC"/>
<path d="M43.0255 195.073C43.5632 195.338 44.0165 196.078 44.3852 197.294C44.631 198.104 44.654 198.994 44.4543 199.963C43.7169 201.214 43.1638 201.981 42.7951 202.263C42.265 202.686 42.0346 202.342 41.8502 201.866C41.6889 201.417 42.4263 200.703 42.749 200.307C42.9641 200.042 43.0178 199.787 42.9103 199.54C42.8642 199.188 42.5108 198.668 41.8502 197.981C41.1896 197.276 40.9284 196.483 41.0667 195.602C41.2971 194.844 41.9501 194.668 43.0255 195.073V195.073Z" fill="#FFE8D9"/>
<path d="M41.5045 197.637C40.2446 197.496 39.4688 196.941 39.1769 195.972C38.9311 195.902 38.8235 195.373 38.8542 194.386C38.9464 191.637 39.3382 181.699 39.9143 178.316C40.3599 175.849 41.6504 171.373 43.7859 164.888C45.2916 159.514 47.6422 157.338 50.8378 158.36C53.7415 159.285 51.2296 163.699 50.6534 166.659C50.2156 168.985 47.7958 176.809 47.0584 180.272C46.4899 182.968 45.6833 188.439 44.6386 196.686C43.809 197.461 42.7643 197.778 41.5045 197.637Z" fill="#253133"/>
<path d="M58.8577 139.963L63.3054 140.598L61.4618 153.708C60.9779 157.487 59.549 157.937 58.5581 157.858C56.461 157.672 54.2486 156.113 53.1425 155.214C50.9992 153.47 51.368 149.056 51.368 148.686L51.2988 139.778L58.8577 139.963Z" fill="#FFE1CC"/>
<path d="M50.2158 158.175L51.4603 149.954L57.4982 151.567L56.7146 159.549C56.7146 160.686 57.406 161.003 57.936 161.954L50.2158 158.175Z" fill="#FFE1CC"/>
<path d="M56.254 190.818C59.5879 205.479 61.4085 213.576 61.7158 215.109C62.3918 218.457 63.5056 225.937 65.0573 237.549C65.1803 239.787 63.9128 241.241 61.2549 241.91C59.0195 242.465 56.5536 240.615 56.4614 239.875C54.4565 223.778 53.696 220.606 53.0738 218.835C52.0367 215.849 48.6721 208.527 46.7594 203.426C45.73 200.712 45.2153 197.787 45.2153 194.65L56.254 190.818Z" fill="#253133"/>
<path d="M45.1685 249.549C45.7369 250.254 46.8585 251.496 48.5331 253.276C49.8697 253.065 50.9144 253.17 51.6673 253.593C52.4201 254.016 52.6813 254.765 52.4508 255.84C50.4843 257.161 49.1476 257.893 48.4409 258.034C47.4039 258.245 45.6755 258.034 44.3389 257.161C44.0854 257.003 43.2096 256.421 41.4582 254.492C41.2969 254.333 41.0664 253.857 40.9051 253.778C40.2752 253.461 39.6069 253.153 38.9002 252.853C38.5775 252.219 38.5391 251.426 38.7849 250.474C39.3995 248.166 40.2982 246.571 41.4812 245.69C43.3556 247.576 44.5847 248.862 45.1685 249.549V249.549Z" fill="#231F20"/>
<path d="M59.5026 200.333C58.4886 208.157 55.2162 226.395 54.3174 229.276C52.3586 235.435 47.496 251.082 47.2195 251.558C47.1504 251.69 46.7125 252.457 43.5553 248.809C42.5643 247.646 40.6516 246.245 39.5454 247.223C42.3108 236.386 44.2774 228.959 45.445 224.941C47.2425 218.774 48.1797 209.17 48.2565 196.131L59.5026 200.333Z" fill="#49595B"/>
<path d="M60.8169 165.443C62.1305 167.003 63.7898 171.893 63.5363 177.417C63.2136 184.694 62.4378 192.633 61.2087 201.232C61.2087 202.183 60.1256 203.902 57.5445 204.589C56.2309 204.959 54.7791 205.62 51.691 204.589C47.4046 203.188 44.4778 199.197 44.4778 197.161C44.8005 192.827 44.6775 184.562 44.1091 172.368C43.7096 163.576 45.5917 158.668 49.7552 157.646L55.4935 159.946L60.8169 165.443Z" fill="#323F42"/>
<path d="M43.8321 254.175C43.9243 254.254 45.7218 256.818 46.1136 257.161C46.9663 257.954 47.5885 258.034 48.0033 258.034C47.4502 258.166 45.9062 258.166 44.5696 257.399C42.9564 256.474 41.5506 254.439 41.4584 254.413C41.3663 254.413 41.9654 254.677 43.256 255.206L43.8321 254.175Z" fill="#383736"/>
<path d="M41.8043 252.509C42.4956 253.567 43.0487 254.598 43.1409 254.994L38.9467 252.853C38.8084 252.624 38.7162 252.368 38.6701 252.087C38.4166 250.448 41.0207 251.346 41.8043 252.509V252.509Z" fill="#4C4B4B"/>
<path d="M53.8342 157.012C56.2539 158.228 57.8671 159.813 58.2588 161.426L58.7428 163.302C58.6352 163.197 57.8747 162.589 56.4613 161.479C54.4487 159.91 52.0904 158.703 49.3864 157.857C49.2635 157.84 49.2558 157.681 49.3634 157.382C49.5477 156.827 49.5477 156.8 49.709 156.245C49.8473 155.664 50.0547 155.531 50.8613 155.743C51.5219 155.919 52.5129 156.342 53.8342 157.012V157.012Z" fill="#F5F5F5"/>
<path d="M51.5757 136.871C51.6679 136.633 51.8753 136.263 52.1749 136.051C52.4361 135.875 52.7049 135.787 52.9815 135.787C52.8893 135.805 52.7126 135.902 52.4514 136.078C52.244 136.21 52.1518 136.421 52.1058 136.58C53.4193 135.946 55.0786 135.708 57.1296 136.051C57.3601 136.104 58.7428 136.501 59.849 136.421C59.9181 136.421 59.4111 136.606 59.4802 137.003C59.5033 137.188 60.0564 137.161 60.4251 137.161C60.6786 137.161 61.877 137.452 62.1535 138.007C62.1535 138.034 61.5543 138.139 61.923 138.483C62.4531 138.985 63.0062 139.54 63.5362 140.413C63.8128 140.871 64.0509 141.54 64.2506 142.421C64.0893 142.791 63.2136 142.395 62.8449 142.818C62.6605 143.029 62.0613 143.769 61.6926 144.853C61.3239 145.937 61.0934 146.968 60.8399 148.448L60.5864 149.822C60.5634 150.324 59.9411 148.818 59.6416 148.342C59.342 147.893 58.7428 148.183 57.0374 149.875C56.5458 150.368 55.2706 151.576 53.2119 153.496C52.3592 154.104 51.6218 154.448 50.8843 153.153C50.6308 152.73 48.9025 149.161 48.6029 147.866C47.5428 143.479 48.3724 138.853 51.5757 136.871V136.871Z" fill="#84460F"/>
<path d="M59.3189 149.611C59.2882 149.875 59.2574 150.712 59.2267 152.122C58.9502 152.016 58.689 151.769 58.4432 151.382C58.3049 151.144 58.0514 150.404 58.3049 149.531C58.5354 148.721 58.9655 148.271 59.5954 148.183C59.4264 148.888 59.3343 149.364 59.3189 149.611V149.611Z" fill="#EFCFBD"/>
<path d="M60.0567 147.76C60.4101 147.743 60.4562 148.025 60.195 148.606C59.7802 149.479 59.6649 150.007 59.6419 150.509C59.6265 150.809 59.6342 151.408 59.6649 152.307C59.4345 152.677 59.2194 152.58 59.0197 152.016C58.8584 151.62 58.7892 150.853 58.8353 149.901C58.8584 149.505 59.4806 147.523 60.0567 147.76V147.76Z" fill="#FFE8D9"/>
<path d="M105.709 203.822L98.4958 199.038L98.4497 178.395L105.663 183.205L105.709 203.822Z" fill="#B27200"/>
<path d="M90.3148 205.699L83.1017 200.889L83.0786 188.571L90.2687 193.382L90.3148 205.699Z" fill="#B27200"/>
<path d="M44.1316 211.488L36.9185 206.677L119.674 151.884L126.887 156.695L44.1316 211.488Z" fill="#FFBA0D"/>
<path d="M35.3285 223.54C35.3515 230.333 31.1803 238.633 26.0182 242.043C23.4371 243.761 21.0635 243.919 19.3812 242.783L12.168 237.999C13.8733 239.109 16.2239 238.95 18.805 237.258C23.9672 233.822 28.1614 225.523 28.1384 218.73C28.1384 215.347 27.0783 212.994 25.396 211.858L32.6092 216.668C34.2915 217.778 35.3285 220.157 35.3285 223.54V223.54Z" fill="#B27200"/>
<path d="M12.698 255.972L5.48483 251.162C2.12021 248.915 0.0230927 244.131 4.737e-05 237.364C-0.0229979 223.699 8.36549 207.021 18.7128 200.175C23.9211 196.739 28.6454 196.421 32.0561 198.695L39.2462 203.479C35.8355 201.206 31.1343 201.523 25.926 204.985C15.5787 211.831 7.16713 228.51 7.21322 242.148C7.23627 248.941 9.31035 253.725 12.698 255.972V255.972Z" fill="#FFBA0D"/>
<path fill-rule="evenodd" clip-rule="evenodd" d="M44.1317 211.488L126.887 156.695L126.91 169.117L115.088 176.941L115.134 197.585L105.709 203.822L105.663 183.206L99.7169 187.144L99.74 199.461L90.3144 205.699L90.2683 193.382L44.1547 223.911C42.0806 235.963 34.7753 248.703 26.0411 254.466C15.6938 261.338 7.23612 255.814 7.21308 242.148C7.16699 228.51 15.5785 211.831 25.9259 204.985C34.66 199.197 42.0115 202.236 44.1317 211.488V211.488ZM26.018 242.043C31.1802 238.633 35.3514 230.333 35.3283 223.54C35.3283 216.747 31.1111 213.999 25.9489 217.408C20.8098 220.818 16.6156 229.118 16.6386 235.911C16.6616 242.703 20.8559 245.452 26.018 242.043Z" fill="#E59E00"/>
<path d="M74.6669 197.611L76.6028 200.703C77.586 202.694 77.5169 204.183 76.3953 205.17C75.8269 205.664 75.2661 206.034 74.713 206.28C74.3443 206.439 74.0294 206.448 73.7682 206.307C73.5377 206.175 73.3764 205.619 73.4916 205.223C73.5838 204.853 73.4225 204.139 73.0999 203.69C71.9783 202.051 71.3331 200.897 71.1641 200.227L74.6669 197.611Z" fill="#FFE8D9"/>
<path d="M73.5149 200.756C72.2243 201.937 71.195 202.175 70.4268 201.47C65.7563 196.483 62.553 192.245 60.8169 188.756C59.7261 186.571 58.328 182.589 56.6227 176.809C54.948 170.941 55.1708 167.338 57.291 165.998C59.9181 164.307 61.854 167.426 62.7758 170.254C63.9972 174.06 65.3338 180.879 66.8317 184.474C67.9686 187.205 70.7033 191.69 75.0359 197.928C75.0512 198.88 74.5442 199.822 73.5149 200.756Z" fill="#49595B"/>
</svg>
