<?xml version="1.0" encoding="UTF-8" standalone="no"?>
<!DOCTYPE svg PUBLIC "-//W3C//DTD SVG 1.1//EN"
 "http://www.w3.org/Graphics/SVG/1.1/DTD/svg11.dtd">
<!-- Generated by graphviz version 2.47.3 (20210619.1520)
 -->
<!-- Title: dependencies Pages: 1 -->
<svg width="362pt" height="174pt"
 viewBox="0.00 0.00 362.00 173.80" xmlns="http://www.w3.org/2000/svg" xmlns:xlink="http://www.w3.org/1999/xlink">
<g id="graph0" class="graph" transform="scale(1 1) rotate(0) translate(4 169.8)">
<title>dependencies</title>
<polygon fill="white" stroke="transparent" points="-4,4 -4,-169.8 358,-169.8 358,4 -4,4"/>
<text text-anchor="middle" x="177" y="-8.2" font-family="sans-serif" font-size="14.00">dependencies</text>
<g id="clust1" class="cluster">
<title>cluster_ServiceModule</title>
<polygon fill="none" stroke="black" stroke-dasharray="1,5" points="8,-32.8 8,-157.8 346,-157.8 346,-32.8 8,-32.8"/>
</g>
<g id="clust6" class="cluster">
<title>cluster_ServiceModule_providers</title>
<polygon fill="none" stroke="black" points="16,-40.8 16,-92.8 338,-92.8 338,-40.8 16,-40.8"/>
</g>
<!-- HttpService -->
<g id="node1" class="node">
<title>HttpService</title>
<ellipse fill="#fdb462" stroke="black" cx="273" cy="-66.8" rx="57.32" ry="18"/>
<text text-anchor="middle" x="273" y="-62.6" font-family="Times,serif" font-size="14.00">HttpService</text>
</g>
<!-- ServiceModule -->
<g id="node3" class="node">
<title>ServiceModule</title>
<polygon fill="#8dd3c7" stroke="black" points="242.53,-149.8 239.53,-153.8 218.53,-153.8 215.53,-149.8 141.47,-149.8 141.47,-113.8 242.53,-113.8 242.53,-149.8"/>
<text text-anchor="middle" x="192" y="-127.6" font-family="Times,serif" font-size="14.00">ServiceModule</text>
</g>
<!-- HttpService&#45;&gt;ServiceModule -->
<g id="edge1" class="edge">
<title>HttpService&#45;&gt;ServiceModule</title>
<path fill="none" stroke="black" d="M229.3,-78.42C229.3,-78.42 229.3,-103.65 229.3,-103.65"/>
<polygon fill="black" stroke="black" points="225.8,-103.65 229.3,-113.65 232.8,-103.65 225.8,-103.65"/>
</g>
<!-- NotificationService -->
<g id="node2" class="node">
<title>NotificationService</title>
<ellipse fill="#fdb462" stroke="black" cx="111" cy="-66.8" rx="86.81" ry="18"/>
<text text-anchor="middle" x="111" y="-62.6" font-family="Times,serif" font-size="14.00">NotificationService</text>
</g>
<!-- NotificationService&#45;&gt;ServiceModule -->
<g id="edge2" class="edge">
<title>NotificationService&#45;&gt;ServiceModule</title>
<path fill="none" stroke="black" d="M169.45,-80.27C169.45,-80.27 169.45,-103.66 169.45,-103.66"/>
<polygon fill="black" stroke="black" points="165.95,-103.66 169.45,-113.66 172.95,-103.66 165.95,-103.66"/>
</g>
</g>
</svg>
