<?xml version="1.0" encoding="UTF-8" standalone="no"?>
<!DOCTYPE svg PUBLIC "-//W3C//DTD SVG 1.1//EN"
 "http://www.w3.org/Graphics/SVG/1.1/DTD/svg11.dtd">
<!-- Generated by graphviz version 2.47.3 (20210619.1520)
 -->
<!-- Title: dependencies Pages: 1 -->
<svg width="2520pt" height="174pt"
 viewBox="0.00 0.00 2520.00 173.80" xmlns="http://www.w3.org/2000/svg" xmlns:xlink="http://www.w3.org/1999/xlink">
<g id="graph0" class="graph" transform="scale(1 1) rotate(0) translate(4 169.8)">
<title>dependencies</title>
<polygon fill="white" stroke="transparent" points="-4,4 -4,-169.8 2516,-169.8 2516,4 -4,4"/>
<text text-anchor="middle" x="1256" y="-8.2" font-family="sans-serif" font-size="14.00">dependencies</text>
<g id="clust1" class="cluster">
<title>cluster_ClassListModule</title>
<polygon fill="none" stroke="black" stroke-dasharray="1,5" points="8,-32.8 8,-157.8 2504,-157.8 2504,-32.8 8,-32.8"/>
</g>
<g id="clust15" class="cluster">
<title>cluster_ClassListModule_imports</title>
<polygon fill="none" stroke="black" points="2199,-40.8 2199,-92.8 2496,-92.8 2496,-40.8 2199,-40.8"/>
</g>
<g id="clust2" class="cluster">
<title>cluster_ClassListModule_declarations</title>
<polygon fill="none" stroke="black" points="208,-40.8 208,-92.8 2191,-92.8 2191,-40.8 208,-40.8"/>
</g>
<g id="clust18" class="cluster">
<title>cluster_ClassListModule_providers</title>
<polygon fill="none" stroke="black" points="16,-40.8 16,-92.8 200,-92.8 200,-40.8 16,-40.8"/>
</g>
<!-- CalenderComponent -->
<g id="node1" class="node">
<title>CalenderComponent</title>
<polygon fill="#ffffb3" stroke="black" points="2182.86,-84.8 2051.14,-84.8 2051.14,-48.8 2182.86,-48.8 2182.86,-84.8"/>
<text text-anchor="middle" x="2117" y="-62.6" font-family="Times,serif" font-size="14.00">CalenderComponent</text>
</g>
<!-- ClassListModule -->
<g id="node13" class="node">
<title>ClassListModule</title>
<polygon fill="#8dd3c7" stroke="black" points="1338.66,-149.8 1335.66,-153.8 1314.66,-153.8 1311.66,-149.8 1227.34,-149.8 1227.34,-113.8 1338.66,-113.8 1338.66,-149.8"/>
<text text-anchor="middle" x="1283" y="-127.6" font-family="Times,serif" font-size="14.00">ClassListModule</text>
</g>
<!-- CalenderComponent&#45;&gt;ClassListModule -->
<g id="edge1" class="edge">
<title>CalenderComponent&#45;&gt;ClassListModule</title>
<path fill="none" stroke="black" d="M2117,-84.83C2117,-105.57 2117,-136.8 2117,-136.8 2117,-136.8 1348.69,-136.8 1348.69,-136.8"/>
<polygon fill="black" stroke="black" points="1348.69,-133.3 1338.69,-136.8 1348.69,-140.3 1348.69,-133.3"/>
</g>
<!-- ClassHeaderComponent -->
<g id="node2" class="node">
<title>ClassHeaderComponent</title>
<polygon fill="#ffffb3" stroke="black" points="2033.07,-84.8 1880.93,-84.8 1880.93,-48.8 2033.07,-48.8 2033.07,-84.8"/>
<text text-anchor="middle" x="1957" y="-62.6" font-family="Times,serif" font-size="14.00">ClassHeaderComponent</text>
</g>
<!-- ClassHeaderComponent&#45;&gt;ClassListModule -->
<g id="edge2" class="edge">
<title>ClassHeaderComponent&#45;&gt;ClassListModule</title>
<path fill="none" stroke="black" d="M1957,-84.91C1957,-104.14 1957,-131.8 1957,-131.8 1957,-131.8 1348.73,-131.8 1348.73,-131.8"/>
<polygon fill="black" stroke="black" points="1348.73,-128.3 1338.73,-131.8 1348.73,-135.3 1348.73,-128.3"/>
</g>
<!-- ClassListComponent -->
<g id="node3" class="node">
<title>ClassListComponent</title>
<polygon fill="#ffffb3" stroke="black" points="1862.94,-84.8 1729.06,-84.8 1729.06,-48.8 1862.94,-48.8 1862.94,-84.8"/>
<text text-anchor="middle" x="1796" y="-62.6" font-family="Times,serif" font-size="14.00">ClassListComponent</text>
</g>
<!-- ClassListComponent&#45;&gt;ClassListModule -->
<g id="edge3" class="edge">
<title>ClassListComponent&#45;&gt;ClassListModule</title>
<path fill="none" stroke="black" d="M1796,-85.1C1796,-103.07 1796,-127.8 1796,-127.8 1796,-127.8 1348.88,-127.8 1348.88,-127.8"/>
<polygon fill="black" stroke="black" points="1348.88,-124.3 1338.88,-127.8 1348.88,-131.3 1348.88,-124.3"/>
</g>
<!-- ClassSideNavComponent -->
<g id="node4" class="node">
<title>ClassSideNavComponent</title>
<polygon fill="#ffffb3" stroke="black" points="1710.87,-84.8 1551.13,-84.8 1551.13,-48.8 1710.87,-48.8 1710.87,-84.8"/>
<text text-anchor="middle" x="1631" y="-62.6" font-family="Times,serif" font-size="14.00">ClassSideNavComponent</text>
</g>
<!-- ClassSideNavComponent&#45;&gt;ClassListModule -->
<g id="edge4" class="edge">
<title>ClassSideNavComponent&#45;&gt;ClassListModule</title>
<path fill="none" stroke="black" d="M1631,-84.83C1631,-101.2 1631,-122.8 1631,-122.8 1631,-122.8 1348.91,-122.8 1348.91,-122.8"/>
<polygon fill="black" stroke="black" points="1348.91,-119.3 1338.91,-122.8 1348.91,-126.3 1348.91,-119.3"/>
</g>
<!-- MyCoursesComponent -->
<g id="node5" class="node">
<title>MyCoursesComponent</title>
<polygon fill="#ffffb3" stroke="black" points="1532.88,-84.8 1387.12,-84.8 1387.12,-48.8 1532.88,-48.8 1532.88,-84.8"/>
<text text-anchor="middle" x="1460" y="-62.6" font-family="Times,serif" font-size="14.00">MyCoursesComponent</text>
</g>
<!-- MyCoursesComponent&#45;&gt;ClassListModule -->
<g id="edge5" class="edge">
<title>MyCoursesComponent&#45;&gt;ClassListModule</title>
<path fill="none" stroke="black" d="M1460,-84.99C1460,-99.98 1460,-118.8 1460,-118.8 1460,-118.8 1349,-118.8 1349,-118.8"/>
<polygon fill="black" stroke="black" points="1349,-115.3 1339,-118.8 1349,-122.3 1349,-115.3"/>
</g>
<!-- TodoCompletedComponent -->
<g id="node6" class="node">
<title>TodoCompletedComponent</title>
<polygon fill="#ffffb3" stroke="black" points="1369.32,-84.8 1196.68,-84.8 1196.68,-48.8 1369.32,-48.8 1369.32,-84.8"/>
<text text-anchor="middle" x="1283" y="-62.6" font-family="Times,serif" font-size="14.00">TodoCompletedComponent</text>
</g>
<!-- TodoCompletedComponent&#45;&gt;ClassListModule -->
<g id="edge6" class="edge">
<title>TodoCompletedComponent&#45;&gt;ClassListModule</title>
<path fill="none" stroke="black" d="M1283,-84.91C1283,-84.91 1283,-103.79 1283,-103.79"/>
<polygon fill="black" stroke="black" points="1279.5,-103.79 1283,-113.79 1286.5,-103.79 1279.5,-103.79"/>
</g>
<!-- TodoComponent -->
<g id="node7" class="node">
<title>TodoComponent</title>
<polygon fill="#ffffb3" stroke="black" points="1178.39,-84.8 1067.61,-84.8 1067.61,-48.8 1178.39,-48.8 1178.39,-84.8"/>
<text text-anchor="middle" x="1123" y="-62.6" font-family="Times,serif" font-size="14.00">TodoComponent</text>
</g>
<!-- TodoComponent&#45;&gt;ClassListModule -->
<g id="edge7" class="edge">
<title>TodoComponent&#45;&gt;ClassListModule</title>
<path fill="none" stroke="black" d="M1123,-84.99C1123,-99.98 1123,-118.8 1123,-118.8 1123,-118.8 1217.04,-118.8 1217.04,-118.8"/>
<polygon fill="black" stroke="black" points="1217.04,-122.3 1227.04,-118.8 1217.04,-115.3 1217.04,-122.3"/>
</g>
<!-- TodoDetailComponent -->
<g id="node8" class="node">
<title>TodoDetailComponent</title>
<polygon fill="#ffffb3" stroke="black" points="1049.59,-84.8 904.41,-84.8 904.41,-48.8 1049.59,-48.8 1049.59,-84.8"/>
<text text-anchor="middle" x="977" y="-62.6" font-family="Times,serif" font-size="14.00">TodoDetailComponent</text>
</g>
<!-- TodoDetailComponent&#45;&gt;ClassListModule -->
<g id="edge8" class="edge">
<title>TodoDetailComponent&#45;&gt;ClassListModule</title>
<path fill="none" stroke="black" d="M977,-84.83C977,-101.2 977,-122.8 977,-122.8 977,-122.8 1217.23,-122.8 1217.23,-122.8"/>
<polygon fill="black" stroke="black" points="1217.23,-126.3 1227.23,-122.8 1217.23,-119.3 1217.23,-126.3"/>
</g>
<!-- TodoImportantComponent -->
<g id="node9" class="node">
<title>TodoImportantComponent</title>
<polygon fill="#ffffb3" stroke="black" points="886.09,-84.8 719.91,-84.8 719.91,-48.8 886.09,-48.8 886.09,-84.8"/>
<text text-anchor="middle" x="803" y="-62.6" font-family="Times,serif" font-size="14.00">TodoImportantComponent</text>
</g>
<!-- TodoImportantComponent&#45;&gt;ClassListModule -->
<g id="edge9" class="edge">
<title>TodoImportantComponent&#45;&gt;ClassListModule</title>
<path fill="none" stroke="black" d="M803,-85.1C803,-103.07 803,-127.8 803,-127.8 803,-127.8 1217,-127.8 1217,-127.8"/>
<polygon fill="black" stroke="black" points="1217,-131.3 1227,-127.8 1217,-124.3 1217,-131.3"/>
</g>
<!-- TodoMydayComponent -->
<g id="node10" class="node">
<title>TodoMydayComponent</title>
<polygon fill="#ffffb3" stroke="black" points="702.04,-84.8 551.96,-84.8 551.96,-48.8 702.04,-48.8 702.04,-84.8"/>
<text text-anchor="middle" x="627" y="-62.6" font-family="Times,serif" font-size="14.00">TodoMydayComponent</text>
</g>
<!-- TodoMydayComponent&#45;&gt;ClassListModule -->
<g id="edge10" class="edge">
<title>TodoMydayComponent&#45;&gt;ClassListModule</title>
<path fill="none" stroke="black" d="M627,-84.91C627,-104.14 627,-131.8 627,-131.8 627,-131.8 1217.07,-131.8 1217.07,-131.8"/>
<polygon fill="black" stroke="black" points="1217.07,-135.3 1227.07,-131.8 1217.07,-128.3 1217.07,-135.3"/>
</g>
<!-- TodoSidenavComponent -->
<g id="node11" class="node">
<title>TodoSidenavComponent</title>
<polygon fill="#ffffb3" stroke="black" points="533.99,-84.8 378.01,-84.8 378.01,-48.8 533.99,-48.8 533.99,-84.8"/>
<text text-anchor="middle" x="456" y="-62.6" font-family="Times,serif" font-size="14.00">TodoSidenavComponent</text>
</g>
<!-- TodoSidenavComponent&#45;&gt;ClassListModule -->
<g id="edge11" class="edge">
<title>TodoSidenavComponent&#45;&gt;ClassListModule</title>
<path fill="none" stroke="black" d="M456,-84.83C456,-105.57 456,-136.8 456,-136.8 456,-136.8 1217.13,-136.8 1217.13,-136.8"/>
<polygon fill="black" stroke="black" points="1217.13,-140.3 1227.13,-136.8 1217.13,-133.3 1217.13,-140.3"/>
</g>
<!-- TodoTasksComponent -->
<g id="node12" class="node">
<title>TodoTasksComponent</title>
<polygon fill="#ffffb3" stroke="black" points="359.54,-84.8 216.46,-84.8 216.46,-48.8 359.54,-48.8 359.54,-84.8"/>
<text text-anchor="middle" x="288" y="-62.6" font-family="Times,serif" font-size="14.00">TodoTasksComponent</text>
</g>
<!-- TodoTasksComponent&#45;&gt;ClassListModule -->
<g id="edge12" class="edge">
<title>TodoTasksComponent&#45;&gt;ClassListModule</title>
<path fill="none" stroke="black" d="M288,-85.09C288,-107.01 288,-140.8 288,-140.8 288,-140.8 1217.01,-140.8 1217.01,-140.8"/>
<polygon fill="black" stroke="black" points="1217.01,-144.3 1227.01,-140.8 1217.01,-137.3 1217.01,-144.3"/>
</g>
<!-- ClassListRoutingModule -->
<g id="node14" class="node">
<title>ClassListRoutingModule</title>
<polygon fill="#8dd3c7" stroke="black" points="2488.28,-84.8 2485.28,-88.8 2464.28,-88.8 2461.28,-84.8 2331.72,-84.8 2331.72,-48.8 2488.28,-48.8 2488.28,-84.8"/>
<text text-anchor="middle" x="2410" y="-62.6" font-family="Times,serif" font-size="14.00">ClassListRoutingModule</text>
</g>
<!-- ClassListRoutingModule&#45;&gt;ClassListModule -->
<g id="edge13" class="edge">
<title>ClassListRoutingModule&#45;&gt;ClassListModule</title>
<path fill="none" stroke="black" d="M2410,-85.12C2410,-108.46 2410,-145.8 2410,-145.8 2410,-145.8 1348.89,-145.8 1348.89,-145.8"/>
<polygon fill="black" stroke="black" points="1348.89,-142.3 1338.89,-145.8 1348.89,-149.3 1348.89,-142.3"/>
</g>
<!-- MaterialModule -->
<g id="node15" class="node">
<title>MaterialModule</title>
<polygon fill="#8dd3c7" stroke="black" points="2313.47,-84.8 2310.47,-88.8 2289.47,-88.8 2286.47,-84.8 2206.53,-84.8 2206.53,-48.8 2313.47,-48.8 2313.47,-84.8"/>
<text text-anchor="middle" x="2260" y="-62.6" font-family="Times,serif" font-size="14.00">MaterialModule</text>
</g>
<!-- MaterialModule&#45;&gt;ClassListModule -->
<g id="edge14" class="edge">
<title>MaterialModule&#45;&gt;ClassListModule</title>
<path fill="none" stroke="black" d="M2260,-85.09C2260,-107.01 2260,-140.8 2260,-140.8 2260,-140.8 1348.68,-140.8 1348.68,-140.8"/>
<polygon fill="black" stroke="black" points="1348.68,-137.3 1338.68,-140.8 1348.68,-144.3 1348.68,-137.3"/>
</g>
<!-- showDetailService -->
<g id="node16" class="node">
<title>showDetailService</title>
<ellipse fill="#fdb462" stroke="black" cx="108" cy="-66.8" rx="83.94" ry="18"/>
<text text-anchor="middle" x="108" y="-62.6" font-family="Times,serif" font-size="14.00">showDetailService</text>
</g>
<!-- showDetailService&#45;&gt;ClassListModule -->
<g id="edge15" class="edge">
<title>showDetailService&#45;&gt;ClassListModule</title>
<path fill="none" stroke="black" d="M108,-85.12C108,-108.46 108,-145.8 108,-145.8 108,-145.8 1217.12,-145.8 1217.12,-145.8"/>
<polygon fill="black" stroke="black" points="1217.12,-149.3 1227.12,-145.8 1217.12,-142.3 1217.12,-149.3"/>
</g>
</g>
</svg>
