<?xml version="1.0" encoding="UTF-8" standalone="no"?>
<!DOCTYPE svg PUBLIC "-//W3C//DTD SVG 1.1//EN"
 "http://www.w3.org/Graphics/SVG/1.1/DTD/svg11.dtd">
<!-- Generated by graphviz version 2.47.3 (20210619.1520)
 -->
<!-- Title: dependencies Pages: 1 -->
<svg width="612pt" height="247pt"
 viewBox="0.00 0.00 612.00 246.80" xmlns="http://www.w3.org/2000/svg" xmlns:xlink="http://www.w3.org/1999/xlink">
<g id="graph0" class="graph" transform="scale(1 1) rotate(0) translate(4 242.8)">
<title>dependencies</title>
<polygon fill="white" stroke="transparent" points="-4,4 -4,-242.8 608,-242.8 608,4 -4,4"/>
<text text-anchor="middle" x="302" y="-8.2" font-family="sans-serif" font-size="14.00">dependencies</text>
<g id="clust1" class="cluster">
<title>cluster_AppModule</title>
<polygon fill="none" stroke="black" stroke-dasharray="1,5" points="8,-32.8 8,-230.8 596,-230.8 596,-32.8 8,-32.8"/>
</g>
<g id="clust8" class="cluster">
<title>cluster_AppModule_bootstrap</title>
<polygon fill="none" stroke="black" points="243,-170.8 243,-222.8 367,-222.8 367,-170.8 243,-170.8"/>
</g>
<g id="clust6" class="cluster">
<title>cluster_AppModule_imports</title>
<polygon fill="none" stroke="black" points="444,-40.8 444,-92.8 588,-92.8 588,-40.8 444,-40.8"/>
</g>
<g id="clust2" class="cluster">
<title>cluster_AppModule_declarations</title>
<polygon fill="none" stroke="black" points="16,-40.8 16,-92.8 436,-92.8 436,-40.8 16,-40.8"/>
</g>
<!-- AppComponent -->
<g id="node1" class="node">
<title>AppComponent</title>
<polygon fill="#ffffb3" stroke="black" points="427.94,-84.8 322.06,-84.8 322.06,-48.8 427.94,-48.8 427.94,-84.8"/>
<text text-anchor="middle" x="375" y="-62.6" font-family="Times,serif" font-size="14.00">AppComponent</text>
</g>
<!-- AppModule -->
<g id="node4" class="node">
<title>AppModule</title>
<polygon fill="#8dd3c7" stroke="black" points="346.66,-149.8 343.66,-153.8 322.66,-153.8 319.66,-149.8 263.34,-149.8 263.34,-113.8 346.66,-113.8 346.66,-149.8"/>
<text text-anchor="middle" x="305" y="-127.6" font-family="Times,serif" font-size="14.00">AppModule</text>
</g>
<!-- AppComponent&#45;&gt;AppModule -->
<g id="edge1" class="edge">
<title>AppComponent&#45;&gt;AppModule</title>
<path fill="none" stroke="black" d="M334.55,-84.91C334.55,-84.91 334.55,-103.79 334.55,-103.79"/>
<polygon fill="black" stroke="black" points="331.05,-103.79 334.55,-113.79 338.05,-103.79 331.05,-103.79"/>
</g>
<!-- NotFoundComponent -->
<g id="node2" class="node">
<title>NotFoundComponent</title>
<polygon fill="#ffffb3" stroke="black" points="304.11,-84.8 165.89,-84.8 165.89,-48.8 304.11,-48.8 304.11,-84.8"/>
<text text-anchor="middle" x="235" y="-62.6" font-family="Times,serif" font-size="14.00">NotFoundComponent</text>
</g>
<!-- NotFoundComponent&#45;&gt;AppModule -->
<g id="edge2" class="edge">
<title>NotFoundComponent&#45;&gt;AppModule</title>
<path fill="none" stroke="black" d="M283.61,-84.91C283.61,-84.91 283.61,-103.79 283.61,-103.79"/>
<polygon fill="black" stroke="black" points="280.11,-103.79 283.61,-113.79 287.11,-103.79 280.11,-103.79"/>
</g>
<!-- RefreshComponent -->
<g id="node3" class="node">
<title>RefreshComponent</title>
<polygon fill="#ffffb3" stroke="black" points="148.36,-84.8 23.64,-84.8 23.64,-48.8 148.36,-48.8 148.36,-84.8"/>
<text text-anchor="middle" x="86" y="-62.6" font-family="Times,serif" font-size="14.00">RefreshComponent</text>
</g>
<!-- RefreshComponent&#45;&gt;AppModule -->
<g id="edge3" class="edge">
<title>RefreshComponent&#45;&gt;AppModule</title>
<path fill="none" stroke="black" d="M86,-84.91C86,-104.14 86,-131.8 86,-131.8 86,-131.8 253.29,-131.8 253.29,-131.8"/>
<polygon fill="black" stroke="black" points="253.29,-135.3 263.29,-131.8 253.29,-128.3 253.29,-135.3"/>
</g>
<!-- AppComponent  -->
<g id="node6" class="node">
<title>AppComponent </title>
<polygon fill="#80b1d3" stroke="black" points="359.44,-214.8 250.56,-214.8 250.56,-178.8 359.44,-178.8 359.44,-214.8"/>
<text text-anchor="middle" x="305" y="-192.6" font-family="Times,serif" font-size="14.00">AppComponent </text>
</g>
<!-- AppModule&#45;&gt;AppComponent  -->
<g id="edge5" class="edge">
<title>AppModule&#45;&gt;AppComponent </title>
<path fill="none" stroke="black" stroke-dasharray="1,5" d="M305,-149.91C305,-149.91 305,-168.79 305,-168.79"/>
<polygon fill="black" stroke="black" points="301.5,-168.79 305,-178.79 308.5,-168.79 301.5,-168.79"/>
</g>
<!-- AppRoutingModule -->
<g id="node5" class="node">
<title>AppRoutingModule</title>
<polygon fill="#8dd3c7" stroke="black" points="580.27,-84.8 577.27,-88.8 556.27,-88.8 553.27,-84.8 451.73,-84.8 451.73,-48.8 580.27,-48.8 580.27,-84.8"/>
<text text-anchor="middle" x="516" y="-62.6" font-family="Times,serif" font-size="14.00">AppRoutingModule</text>
</g>
<!-- AppRoutingModule&#45;&gt;AppModule -->
<g id="edge4" class="edge">
<title>AppRoutingModule&#45;&gt;AppModule</title>
<path fill="none" stroke="black" d="M516,-84.91C516,-104.14 516,-131.8 516,-131.8 516,-131.8 356.69,-131.8 356.69,-131.8"/>
<polygon fill="black" stroke="black" points="356.69,-128.3 346.69,-131.8 356.69,-135.3 356.69,-128.3"/>
</g>
</g>
</svg>
