<?xml version="1.0" encoding="UTF-8" standalone="no"?>
<!DOCTYPE svg PUBLIC "-//W3C//DTD SVG 1.1//EN"
 "http://www.w3.org/Graphics/SVG/1.1/DTD/svg11.dtd">
<!-- Generated by graphviz version 2.47.3 (20210619.1520)
 -->
<!-- Title: dependencies Pages: 1 -->
<svg width="1857pt" height="174pt"
 viewBox="0.00 0.00 1857.00 173.80" xmlns="http://www.w3.org/2000/svg" xmlns:xlink="http://www.w3.org/1999/xlink">
<g id="graph0" class="graph" transform="scale(1 1) rotate(0) translate(4 169.8)">
<title>dependencies</title>
<polygon fill="white" stroke="transparent" points="-4,4 -4,-169.8 1853,-169.8 1853,4 -4,4"/>
<text text-anchor="middle" x="924.5" y="-8.2" font-family="sans-serif" font-size="14.00">dependencies</text>
<g id="clust1" class="cluster">
<title>cluster_EnglishModule</title>
<polygon fill="none" stroke="black" stroke-dasharray="1,5" points="8,-32.8 8,-157.8 1841,-157.8 1841,-32.8 8,-32.8"/>
</g>
<g id="clust2" class="cluster">
<title>cluster_EnglishModule_declarations</title>
<polygon fill="none" stroke="black" points="432,-40.8 432,-92.8 1833,-92.8 1833,-40.8 432,-40.8"/>
</g>
<g id="clust12" class="cluster">
<title>cluster_EnglishModule_imports</title>
<polygon fill="none" stroke="black" points="16,-40.8 16,-92.8 424,-92.8 424,-40.8 16,-40.8"/>
</g>
<!-- AuthContainerComponent -->
<g id="node1" class="node">
<title>AuthContainerComponent</title>
<polygon fill="#ffffb3" stroke="black" points="1825.04,-84.8 1660.96,-84.8 1660.96,-48.8 1825.04,-48.8 1825.04,-84.8"/>
<text text-anchor="middle" x="1743" y="-62.6" font-family="Times,serif" font-size="14.00">AuthContainerComponent</text>
</g>
<!-- EnglishModule -->
<g id="node10" class="node">
<title>EnglishModule</title>
<polygon fill="#8dd3c7" stroke="black" points="964.33,-149.8 961.33,-153.8 940.33,-153.8 937.33,-149.8 861.67,-149.8 861.67,-113.8 964.33,-113.8 964.33,-149.8"/>
<text text-anchor="middle" x="913" y="-127.6" font-family="Times,serif" font-size="14.00">EnglishModule</text>
</g>
<!-- AuthContainerComponent&#45;&gt;EnglishModule -->
<g id="edge1" class="edge">
<title>AuthContainerComponent&#45;&gt;EnglishModule</title>
<path fill="none" stroke="black" d="M1743,-84.89C1743,-107.93 1743,-144.8 1743,-144.8 1743,-144.8 974.29,-144.8 974.29,-144.8"/>
<polygon fill="black" stroke="black" points="974.29,-141.3 964.29,-144.8 974.29,-148.3 974.29,-141.3"/>
</g>
<!-- EmailValidationComponent -->
<g id="node2" class="node">
<title>EmailValidationComponent</title>
<polygon fill="#ffffb3" stroke="black" points="1642.87,-84.8 1469.13,-84.8 1469.13,-48.8 1642.87,-48.8 1642.87,-84.8"/>
<text text-anchor="middle" x="1556" y="-62.6" font-family="Times,serif" font-size="14.00">EmailValidationComponent</text>
</g>
<!-- EmailValidationComponent&#45;&gt;EnglishModule -->
<g id="edge2" class="edge">
<title>EmailValidationComponent&#45;&gt;EnglishModule</title>
<path fill="none" stroke="black" d="M1556,-85.08C1556,-106.12 1556,-137.8 1556,-137.8 1556,-137.8 974.26,-137.8 974.26,-137.8"/>
<polygon fill="black" stroke="black" points="974.26,-134.3 964.26,-137.8 974.26,-141.3 974.26,-134.3"/>
</g>
<!-- EnglishComponent -->
<g id="node3" class="node">
<title>EnglishComponent</title>
<polygon fill="#ffffb3" stroke="black" points="1451.11,-84.8 1326.89,-84.8 1326.89,-48.8 1451.11,-48.8 1451.11,-84.8"/>
<text text-anchor="middle" x="1389" y="-62.6" font-family="Times,serif" font-size="14.00">EnglishComponent</text>
</g>
<!-- EnglishComponent&#45;&gt;EnglishModule -->
<g id="edge3" class="edge">
<title>EnglishComponent&#45;&gt;EnglishModule</title>
<path fill="none" stroke="black" d="M1389,-84.91C1389,-104.14 1389,-131.8 1389,-131.8 1389,-131.8 974.39,-131.8 974.39,-131.8"/>
<polygon fill="black" stroke="black" points="974.39,-128.3 964.39,-131.8 974.39,-135.3 974.39,-128.3"/>
</g>
<!-- HeaderComponent -->
<g id="node4" class="node">
<title>HeaderComponent</title>
<polygon fill="#ffffb3" stroke="black" points="1308.74,-84.8 1187.26,-84.8 1187.26,-48.8 1308.74,-48.8 1308.74,-84.8"/>
<text text-anchor="middle" x="1248" y="-62.6" font-family="Times,serif" font-size="14.00">HeaderComponent</text>
</g>
<!-- HeaderComponent&#45;&gt;EnglishModule -->
<g id="edge4" class="edge">
<title>HeaderComponent&#45;&gt;EnglishModule</title>
<path fill="none" stroke="black" d="M1248,-84.82C1248,-102.17 1248,-125.8 1248,-125.8 1248,-125.8 974.24,-125.8 974.24,-125.8"/>
<polygon fill="black" stroke="black" points="974.24,-122.3 964.24,-125.8 974.24,-129.3 974.24,-122.3"/>
</g>
<!-- LoginComponent -->
<g id="node5" class="node">
<title>LoginComponent</title>
<polygon fill="#ffffb3" stroke="black" points="1169.28,-84.8 1054.72,-84.8 1054.72,-48.8 1169.28,-48.8 1169.28,-84.8"/>
<text text-anchor="middle" x="1112" y="-62.6" font-family="Times,serif" font-size="14.00">LoginComponent</text>
</g>
<!-- LoginComponent&#45;&gt;EnglishModule -->
<g id="edge5" class="edge">
<title>LoginComponent&#45;&gt;EnglishModule</title>
<path fill="none" stroke="black" d="M1112,-85.04C1112,-100.37 1112,-119.8 1112,-119.8 1112,-119.8 974.25,-119.8 974.25,-119.8"/>
<polygon fill="black" stroke="black" points="974.25,-116.3 964.25,-119.8 974.25,-123.3 974.25,-116.3"/>
</g>
<!-- MainComponent -->
<g id="node6" class="node">
<title>MainComponent</title>
<polygon fill="#ffffb3" stroke="black" points="1036.38,-84.8 925.62,-84.8 925.62,-48.8 1036.38,-48.8 1036.38,-84.8"/>
<text text-anchor="middle" x="981" y="-62.6" font-family="Times,serif" font-size="14.00">MainComponent</text>
</g>
<!-- MainComponent&#45;&gt;EnglishModule -->
<g id="edge6" class="edge">
<title>MainComponent&#45;&gt;EnglishModule</title>
<path fill="none" stroke="black" d="M944.86,-84.91C944.86,-84.91 944.86,-103.79 944.86,-103.79"/>
<polygon fill="black" stroke="black" points="941.36,-103.79 944.86,-113.79 948.36,-103.79 941.36,-103.79"/>
</g>
<!-- ServiceComponent -->
<g id="node7" class="node">
<title>ServiceComponent</title>
<polygon fill="#ffffb3" stroke="black" points="907.81,-84.8 784.19,-84.8 784.19,-48.8 907.81,-48.8 907.81,-84.8"/>
<text text-anchor="middle" x="846" y="-62.6" font-family="Times,serif" font-size="14.00">ServiceComponent</text>
</g>
<!-- ServiceComponent&#45;&gt;EnglishModule -->
<g id="edge7" class="edge">
<title>ServiceComponent&#45;&gt;EnglishModule</title>
<path fill="none" stroke="black" d="M884.75,-84.91C884.75,-84.91 884.75,-103.79 884.75,-103.79"/>
<polygon fill="black" stroke="black" points="881.25,-103.79 884.75,-113.79 888.25,-103.79 881.25,-103.79"/>
</g>
<!-- SignupComponent -->
<g id="node8" class="node">
<title>SignupComponent</title>
<polygon fill="#ffffb3" stroke="black" points="766.51,-84.8 645.49,-84.8 645.49,-48.8 766.51,-48.8 766.51,-84.8"/>
<text text-anchor="middle" x="706" y="-62.6" font-family="Times,serif" font-size="14.00">SignupComponent</text>
</g>
<!-- SignupComponent&#45;&gt;EnglishModule -->
<g id="edge8" class="edge">
<title>SignupComponent&#45;&gt;EnglishModule</title>
<path fill="none" stroke="black" d="M706,-85.04C706,-100.37 706,-119.8 706,-119.8 706,-119.8 851.83,-119.8 851.83,-119.8"/>
<polygon fill="black" stroke="black" points="851.83,-123.3 861.83,-119.8 851.83,-116.3 851.83,-123.3"/>
</g>
<!-- ValidationRedirectComponent -->
<g id="node9" class="node">
<title>ValidationRedirectComponent</title>
<polygon fill="#ffffb3" stroke="black" points="627.85,-84.8 440.15,-84.8 440.15,-48.8 627.85,-48.8 627.85,-84.8"/>
<text text-anchor="middle" x="534" y="-62.6" font-family="Times,serif" font-size="14.00">ValidationRedirectComponent</text>
</g>
<!-- ValidationRedirectComponent&#45;&gt;EnglishModule -->
<g id="edge9" class="edge">
<title>ValidationRedirectComponent&#45;&gt;EnglishModule</title>
<path fill="none" stroke="black" d="M534,-84.82C534,-102.17 534,-125.8 534,-125.8 534,-125.8 851.49,-125.8 851.49,-125.8"/>
<polygon fill="black" stroke="black" points="851.49,-129.3 861.49,-125.8 851.49,-122.3 851.49,-129.3"/>
</g>
<!-- EnglishRoutingModule -->
<g id="node11" class="node">
<title>EnglishRoutingModule</title>
<polygon fill="#8dd3c7" stroke="black" points="415.95,-84.8 412.95,-88.8 391.95,-88.8 388.95,-84.8 268.05,-84.8 268.05,-48.8 415.95,-48.8 415.95,-84.8"/>
<text text-anchor="middle" x="342" y="-62.6" font-family="Times,serif" font-size="14.00">EnglishRoutingModule</text>
</g>
<!-- EnglishRoutingModule&#45;&gt;EnglishModule -->
<g id="edge10" class="edge">
<title>EnglishRoutingModule&#45;&gt;EnglishModule</title>
<path fill="none" stroke="black" d="M342,-84.91C342,-104.14 342,-131.8 342,-131.8 342,-131.8 851.83,-131.8 851.83,-131.8"/>
<polygon fill="black" stroke="black" points="851.83,-135.3 861.83,-131.8 851.83,-128.3 851.83,-135.3"/>
</g>
<!-- MaterialModule -->
<g id="node12" class="node">
<title>MaterialModule</title>
<polygon fill="#8dd3c7" stroke="black" points="250.47,-84.8 247.47,-88.8 226.47,-88.8 223.47,-84.8 143.53,-84.8 143.53,-48.8 250.47,-48.8 250.47,-84.8"/>
<text text-anchor="middle" x="197" y="-62.6" font-family="Times,serif" font-size="14.00">MaterialModule</text>
</g>
<!-- MaterialModule&#45;&gt;EnglishModule -->
<g id="edge11" class="edge">
<title>MaterialModule&#45;&gt;EnglishModule</title>
<path fill="none" stroke="black" d="M197,-85.08C197,-106.12 197,-137.8 197,-137.8 197,-137.8 851.79,-137.8 851.79,-137.8"/>
<polygon fill="black" stroke="black" points="851.79,-141.3 861.79,-137.8 851.79,-134.3 851.79,-141.3"/>
</g>
<!-- ServiceModule -->
<g id="node13" class="node">
<title>ServiceModule</title>
<polygon fill="#8dd3c7" stroke="black" points="125.53,-84.8 122.53,-88.8 101.53,-88.8 98.53,-84.8 24.47,-84.8 24.47,-48.8 125.53,-48.8 125.53,-84.8"/>
<text text-anchor="middle" x="75" y="-62.6" font-family="Times,serif" font-size="14.00">ServiceModule</text>
</g>
<!-- ServiceModule&#45;&gt;EnglishModule -->
<g id="edge12" class="edge">
<title>ServiceModule&#45;&gt;EnglishModule</title>
<path fill="none" stroke="black" d="M75,-84.89C75,-107.93 75,-144.8 75,-144.8 75,-144.8 851.53,-144.8 851.53,-144.8"/>
<polygon fill="black" stroke="black" points="851.53,-148.3 861.53,-144.8 851.53,-141.3 851.53,-148.3"/>
</g>
</g>
</svg>
