<?xml version="1.0" encoding="UTF-8" standalone="no"?>
<!DOCTYPE svg PUBLIC "-//W3C//DTD SVG 1.1//EN"
 "http://www.w3.org/Graphics/SVG/1.1/DTD/svg11.dtd">
<!-- Generated by graphviz version 2.47.3 (20210619.1520)
 -->
<!-- Title: dependencies Pages: 1 -->
<svg width="4831pt" height="258pt"
 viewBox="0.00 0.00 4831.00 257.80" xmlns="http://www.w3.org/2000/svg" xmlns:xlink="http://www.w3.org/1999/xlink">
<g id="graph0" class="graph" transform="scale(1 1) rotate(0) translate(4 253.8)">
<title>dependencies</title>
<polygon fill="white" stroke="transparent" points="-4,4 -4,-253.8 4827,-253.8 4827,4 -4,4"/>
<text text-anchor="middle" x="2411.5" y="-8.2" font-family="sans-serif" font-size="14.00">dependencies</text>
<g id="clust40" class="cluster">
<title>cluster_EnglishModule</title>
<polygon fill="none" stroke="black" stroke-dasharray="1,5" points="2983,-108.8 2983,-233.8 4815,-233.8 4815,-108.8 2983,-108.8"/>
</g>
<g id="clust41" class="cluster">
<title>cluster_EnglishModule_declarations</title>
<polygon fill="none" stroke="black" points="3406,-116.8 3406,-168.8 4807,-168.8 4807,-116.8 3406,-116.8"/>
</g>
<g id="clust51" class="cluster">
<title>cluster_EnglishModule_imports</title>
<polygon fill="none" stroke="black" points="2991,-116.8 2991,-168.8 3398,-168.8 3398,-116.8 2991,-116.8"/>
</g>
<g id="clust16" class="cluster">
<title>cluster_ClassListModule</title>
<polygon fill="none" stroke="black" stroke-dasharray="1,5" points="604,-108.8 604,-233.8 2975,-233.8 2975,-108.8 604,-108.8"/>
</g>
<g id="clust17" class="cluster">
<title>cluster_ClassListModule_declarations</title>
<polygon fill="none" stroke="black" points="984,-116.8 984,-168.8 2967,-168.8 2967,-116.8 984,-116.8"/>
</g>
<g id="clust30" class="cluster">
<title>cluster_ClassListModule_imports</title>
<polygon fill="none" stroke="black" points="804,-116.8 804,-168.8 976,-168.8 976,-116.8 804,-116.8"/>
</g>
<g id="clust33" class="cluster">
<title>cluster_ClassListModule_providers</title>
<polygon fill="none" stroke="black" points="612,-116.8 612,-168.8 796,-168.8 796,-116.8 612,-116.8"/>
</g>
<g id="clust67" class="cluster">
<title>cluster_ServiceModule</title>
<polygon fill="none" stroke="black" stroke-dasharray="1,5" points="3155,-32.8 3155,-100.8 3493,-100.8 3493,-32.8 3155,-32.8"/>
</g>
<g id="clust72" class="cluster">
<title>cluster_ServiceModule_providers</title>
<polygon fill="none" stroke="black" points="3163,-40.8 3163,-92.8 3485,-92.8 3485,-40.8 3163,-40.8"/>
</g>
<g id="clust1" class="cluster">
<title>cluster_AppModule</title>
<polygon fill="none" stroke="black" stroke-dasharray="1,5" points="8,-32.8 8,-241.8 596,-241.8 596,-32.8 8,-32.8"/>
</g>
<g id="clust8" class="cluster">
<title>cluster_AppModule_bootstrap</title>
<polygon fill="none" stroke="black" points="250,-181.8 250,-233.8 374,-233.8 374,-181.8 250,-181.8"/>
</g>
<g id="clust2" class="cluster">
<title>cluster_AppModule_declarations</title>
<polygon fill="none" stroke="black" points="168,-40.8 168,-92.8 588,-92.8 588,-40.8 168,-40.8"/>
</g>
<g id="clust6" class="cluster">
<title>cluster_AppModule_imports</title>
<polygon fill="none" stroke="black" points="16,-40.8 16,-92.8 160,-92.8 160,-40.8 16,-40.8"/>
</g>
<!-- AppComponent -->
<g id="node1" class="node">
<title>AppComponent</title>
<polygon fill="#ffffb3" stroke="black" points="579.94,-84.8 474.06,-84.8 474.06,-48.8 579.94,-48.8 579.94,-84.8"/>
<text text-anchor="middle" x="527" y="-62.6" font-family="Times,serif" font-size="14.00">AppComponent</text>
</g>
<!-- AppModule -->
<g id="node4" class="node">
<title>AppModule</title>
<polygon fill="#8dd3c7" stroke="black" points="353.66,-160.8 350.66,-164.8 329.66,-164.8 326.66,-160.8 270.34,-160.8 270.34,-124.8 353.66,-124.8 353.66,-160.8"/>
<text text-anchor="middle" x="312" y="-138.6" font-family="Times,serif" font-size="14.00">AppModule</text>
</g>
<!-- AppComponent&#45;&gt;AppModule -->
<g id="edge1" class="edge">
<title>AppComponent&#45;&gt;AppModule</title>
<path fill="none" stroke="black" d="M527,-84.81C527,-107.29 527,-142.8 527,-142.8 527,-142.8 363.71,-142.8 363.71,-142.8"/>
<polygon fill="black" stroke="black" points="363.71,-139.3 353.71,-142.8 363.71,-146.3 363.71,-139.3"/>
</g>
<!-- NotFoundComponent -->
<g id="node2" class="node">
<title>NotFoundComponent</title>
<polygon fill="#ffffb3" stroke="black" points="456.11,-84.8 317.89,-84.8 317.89,-48.8 456.11,-48.8 456.11,-84.8"/>
<text text-anchor="middle" x="387" y="-62.6" font-family="Times,serif" font-size="14.00">NotFoundComponent</text>
</g>
<!-- NotFoundComponent&#45;&gt;AppModule -->
<g id="edge2" class="edge">
<title>NotFoundComponent&#45;&gt;AppModule</title>
<path fill="none" stroke="black" d="M335.89,-84.81C335.89,-84.81 335.89,-114.65 335.89,-114.65"/>
<polygon fill="black" stroke="black" points="332.39,-114.65 335.89,-124.65 339.39,-114.65 332.39,-114.65"/>
</g>
<!-- RefreshComponent -->
<g id="node3" class="node">
<title>RefreshComponent</title>
<polygon fill="#ffffb3" stroke="black" points="300.36,-84.8 175.64,-84.8 175.64,-48.8 300.36,-48.8 300.36,-84.8"/>
<text text-anchor="middle" x="238" y="-62.6" font-family="Times,serif" font-size="14.00">RefreshComponent</text>
</g>
<!-- RefreshComponent&#45;&gt;AppModule -->
<g id="edge3" class="edge">
<title>RefreshComponent&#45;&gt;AppModule</title>
<path fill="none" stroke="black" d="M285.3,-84.81C285.3,-84.81 285.3,-114.65 285.3,-114.65"/>
<polygon fill="black" stroke="black" points="281.8,-114.65 285.3,-124.65 288.8,-114.65 281.8,-114.65"/>
</g>
<!-- AppComponent  -->
<g id="node6" class="node">
<title>AppComponent </title>
<polygon fill="#80b1d3" stroke="black" points="366.44,-225.8 257.56,-225.8 257.56,-189.8 366.44,-189.8 366.44,-225.8"/>
<text text-anchor="middle" x="312" y="-203.6" font-family="Times,serif" font-size="14.00">AppComponent </text>
</g>
<!-- AppModule&#45;&gt;AppComponent  -->
<g id="edge5" class="edge">
<title>AppModule&#45;&gt;AppComponent </title>
<path fill="none" stroke="black" stroke-dasharray="1,5" d="M312,-160.91C312,-160.91 312,-179.79 312,-179.79"/>
<polygon fill="black" stroke="black" points="308.5,-179.79 312,-189.79 315.5,-179.79 308.5,-179.79"/>
</g>
<!-- AppRoutingModule -->
<g id="node5" class="node">
<title>AppRoutingModule</title>
<polygon fill="#8dd3c7" stroke="black" points="152.27,-84.8 149.27,-88.8 128.27,-88.8 125.27,-84.8 23.73,-84.8 23.73,-48.8 152.27,-48.8 152.27,-84.8"/>
<text text-anchor="middle" x="88" y="-62.6" font-family="Times,serif" font-size="14.00">AppRoutingModule</text>
</g>
<!-- AppRoutingModule&#45;&gt;AppModule -->
<g id="edge4" class="edge">
<title>AppRoutingModule&#45;&gt;AppModule</title>
<path fill="none" stroke="black" d="M88,-84.81C88,-107.29 88,-142.8 88,-142.8 88,-142.8 260.13,-142.8 260.13,-142.8"/>
<polygon fill="black" stroke="black" points="260.13,-146.3 270.13,-142.8 260.13,-139.3 260.13,-146.3"/>
</g>
<!-- CalenderComponent -->
<g id="node7" class="node">
<title>CalenderComponent</title>
<polygon fill="#ffffb3" stroke="black" points="2958.86,-160.8 2827.14,-160.8 2827.14,-124.8 2958.86,-124.8 2958.86,-160.8"/>
<text text-anchor="middle" x="2893" y="-138.6" font-family="Times,serif" font-size="14.00">CalenderComponent</text>
</g>
<!-- ClassListModule -->
<g id="node19" class="node">
<title>ClassListModule</title>
<polygon fill="#8dd3c7" stroke="black" points="1954.66,-225.8 1951.66,-229.8 1930.66,-229.8 1927.66,-225.8 1843.34,-225.8 1843.34,-189.8 1954.66,-189.8 1954.66,-225.8"/>
<text text-anchor="middle" x="1899" y="-203.6" font-family="Times,serif" font-size="14.00">ClassListModule</text>
</g>
<!-- CalenderComponent&#45;&gt;ClassListModule -->
<g id="edge6" class="edge">
<title>CalenderComponent&#45;&gt;ClassListModule</title>
<path fill="none" stroke="black" d="M2893,-160.89C2893,-183.93 2893,-220.8 2893,-220.8 2893,-220.8 1964.93,-220.8 1964.93,-220.8"/>
<polygon fill="black" stroke="black" points="1964.93,-217.3 1954.93,-220.8 1964.93,-224.3 1964.93,-217.3"/>
</g>
<!-- ClassHeaderComponent -->
<g id="node8" class="node">
<title>ClassHeaderComponent</title>
<polygon fill="#ffffb3" stroke="black" points="2809.07,-160.8 2656.93,-160.8 2656.93,-124.8 2809.07,-124.8 2809.07,-160.8"/>
<text text-anchor="middle" x="2733" y="-138.6" font-family="Times,serif" font-size="14.00">ClassHeaderComponent</text>
</g>
<!-- ClassHeaderComponent&#45;&gt;ClassListModule -->
<g id="edge7" class="edge">
<title>ClassHeaderComponent&#45;&gt;ClassListModule</title>
<path fill="none" stroke="black" d="M2733,-160.96C2733,-183.15 2733,-217.8 2733,-217.8 2733,-217.8 1964.69,-217.8 1964.69,-217.8"/>
<polygon fill="black" stroke="black" points="1964.69,-214.3 1954.69,-217.8 1964.69,-221.3 1964.69,-214.3"/>
</g>
<!-- ClassListComponent -->
<g id="node9" class="node">
<title>ClassListComponent</title>
<polygon fill="#ffffb3" stroke="black" points="2638.94,-160.8 2505.06,-160.8 2505.06,-124.8 2638.94,-124.8 2638.94,-160.8"/>
<text text-anchor="middle" x="2572" y="-138.6" font-family="Times,serif" font-size="14.00">ClassListComponent</text>
</g>
<!-- ClassListComponent&#45;&gt;ClassListModule -->
<g id="edge8" class="edge">
<title>ClassListComponent&#45;&gt;ClassListModule</title>
<path fill="none" stroke="black" d="M2572,-160.97C2572,-182.3 2572,-214.8 2572,-214.8 2572,-214.8 1964.93,-214.8 1964.93,-214.8"/>
<polygon fill="black" stroke="black" points="1964.93,-211.3 1954.93,-214.8 1964.93,-218.3 1964.93,-211.3"/>
</g>
<!-- ClassSideNavComponent -->
<g id="node10" class="node">
<title>ClassSideNavComponent</title>
<polygon fill="#ffffb3" stroke="black" points="2486.87,-160.8 2327.13,-160.8 2327.13,-124.8 2486.87,-124.8 2486.87,-160.8"/>
<text text-anchor="middle" x="2407" y="-138.6" font-family="Times,serif" font-size="14.00">ClassSideNavComponent</text>
</g>
<!-- ClassSideNavComponent&#45;&gt;ClassListModule -->
<g id="edge9" class="edge">
<title>ClassSideNavComponent&#45;&gt;ClassListModule</title>
<path fill="none" stroke="black" d="M2407,-160.83C2407,-181.57 2407,-212.8 2407,-212.8 2407,-212.8 1964.82,-212.8 1964.82,-212.8"/>
<polygon fill="black" stroke="black" points="1964.82,-209.3 1954.82,-212.8 1964.82,-216.3 1964.82,-209.3"/>
</g>
<!-- MyCoursesComponent -->
<g id="node11" class="node">
<title>MyCoursesComponent</title>
<polygon fill="#ffffb3" stroke="black" points="2308.88,-160.8 2163.12,-160.8 2163.12,-124.8 2308.88,-124.8 2308.88,-160.8"/>
<text text-anchor="middle" x="2236" y="-138.6" font-family="Times,serif" font-size="14.00">MyCoursesComponent</text>
</g>
<!-- MyCoursesComponent&#45;&gt;ClassListModule -->
<g id="edge10" class="edge">
<title>MyCoursesComponent&#45;&gt;ClassListModule</title>
<path fill="none" stroke="black" d="M2236,-161.11C2236,-180.95 2236,-209.8 2236,-209.8 2236,-209.8 1965.03,-209.8 1965.03,-209.8"/>
<polygon fill="black" stroke="black" points="1965.03,-206.3 1955.03,-209.8 1965.03,-213.3 1965.03,-206.3"/>
</g>
<!-- TodoCompletedComponent -->
<g id="node12" class="node">
<title>TodoCompletedComponent</title>
<polygon fill="#ffffb3" stroke="black" points="2145.32,-160.8 1972.68,-160.8 1972.68,-124.8 2145.32,-124.8 2145.32,-160.8"/>
<text text-anchor="middle" x="2059" y="-138.6" font-family="Times,serif" font-size="14.00">TodoCompletedComponent</text>
</g>
<!-- TodoCompletedComponent&#45;&gt;ClassListModule -->
<g id="edge11" class="edge">
<title>TodoCompletedComponent&#45;&gt;ClassListModule</title>
<path fill="none" stroke="black" d="M2059,-160.97C2059,-179.89 2059,-206.8 2059,-206.8 2059,-206.8 1964.96,-206.8 1964.96,-206.8"/>
<polygon fill="black" stroke="black" points="1964.96,-203.3 1954.96,-206.8 1964.96,-210.3 1964.96,-203.3"/>
</g>
<!-- TodoComponent -->
<g id="node13" class="node">
<title>TodoComponent</title>
<polygon fill="#ffffb3" stroke="black" points="1954.39,-160.8 1843.61,-160.8 1843.61,-124.8 1954.39,-124.8 1954.39,-160.8"/>
<text text-anchor="middle" x="1899" y="-138.6" font-family="Times,serif" font-size="14.00">TodoComponent</text>
</g>
<!-- TodoComponent&#45;&gt;ClassListModule -->
<g id="edge12" class="edge">
<title>TodoComponent&#45;&gt;ClassListModule</title>
<path fill="none" stroke="black" d="M1899,-160.91C1899,-160.91 1899,-179.79 1899,-179.79"/>
<polygon fill="black" stroke="black" points="1895.5,-179.79 1899,-189.79 1902.5,-179.79 1895.5,-179.79"/>
</g>
<!-- TodoDetailComponent -->
<g id="node14" class="node">
<title>TodoDetailComponent</title>
<polygon fill="#ffffb3" stroke="black" points="1825.59,-160.8 1680.41,-160.8 1680.41,-124.8 1825.59,-124.8 1825.59,-160.8"/>
<text text-anchor="middle" x="1753" y="-138.6" font-family="Times,serif" font-size="14.00">TodoDetailComponent</text>
</g>
<!-- TodoDetailComponent&#45;&gt;ClassListModule -->
<g id="edge13" class="edge">
<title>TodoDetailComponent&#45;&gt;ClassListModule</title>
<path fill="none" stroke="black" d="M1753,-160.99C1753,-175.98 1753,-194.8 1753,-194.8 1753,-194.8 1832.97,-194.8 1832.97,-194.8"/>
<polygon fill="black" stroke="black" points="1832.97,-198.3 1842.97,-194.8 1832.97,-191.3 1832.97,-198.3"/>
</g>
<!-- TodoImportantComponent -->
<g id="node15" class="node">
<title>TodoImportantComponent</title>
<polygon fill="#ffffb3" stroke="black" points="1662.09,-160.8 1495.91,-160.8 1495.91,-124.8 1662.09,-124.8 1662.09,-160.8"/>
<text text-anchor="middle" x="1579" y="-138.6" font-family="Times,serif" font-size="14.00">TodoImportantComponent</text>
</g>
<!-- TodoImportantComponent&#45;&gt;ClassListModule -->
<g id="edge14" class="edge">
<title>TodoImportantComponent&#45;&gt;ClassListModule</title>
<path fill="none" stroke="black" d="M1579,-160.83C1579,-177.2 1579,-198.8 1579,-198.8 1579,-198.8 1833.26,-198.8 1833.26,-198.8"/>
<polygon fill="black" stroke="black" points="1833.26,-202.3 1843.26,-198.8 1833.26,-195.3 1833.26,-202.3"/>
</g>
<!-- TodoMydayComponent -->
<g id="node16" class="node">
<title>TodoMydayComponent</title>
<polygon fill="#ffffb3" stroke="black" points="1478.04,-160.8 1327.96,-160.8 1327.96,-124.8 1478.04,-124.8 1478.04,-160.8"/>
<text text-anchor="middle" x="1403" y="-138.6" font-family="Times,serif" font-size="14.00">TodoMydayComponent</text>
</g>
<!-- TodoMydayComponent&#45;&gt;ClassListModule -->
<g id="edge15" class="edge">
<title>TodoMydayComponent&#45;&gt;ClassListModule</title>
<path fill="none" stroke="black" d="M1403,-161.1C1403,-179.07 1403,-203.8 1403,-203.8 1403,-203.8 1833.07,-203.8 1833.07,-203.8"/>
<polygon fill="black" stroke="black" points="1833.07,-207.3 1843.07,-203.8 1833.07,-200.3 1833.07,-207.3"/>
</g>
<!-- TodoSidenavComponent -->
<g id="node17" class="node">
<title>TodoSidenavComponent</title>
<polygon fill="#ffffb3" stroke="black" points="1309.99,-160.8 1154.01,-160.8 1154.01,-124.8 1309.99,-124.8 1309.99,-160.8"/>
<text text-anchor="middle" x="1232" y="-138.6" font-family="Times,serif" font-size="14.00">TodoSidenavComponent</text>
</g>
<!-- TodoSidenavComponent&#45;&gt;ClassListModule -->
<g id="edge16" class="edge">
<title>TodoSidenavComponent&#45;&gt;ClassListModule</title>
<path fill="none" stroke="black" d="M1232,-160.91C1232,-180.14 1232,-207.8 1232,-207.8 1232,-207.8 1833.28,-207.8 1833.28,-207.8"/>
<polygon fill="black" stroke="black" points="1833.28,-211.3 1843.28,-207.8 1833.28,-204.3 1833.28,-211.3"/>
</g>
<!-- TodoTasksComponent -->
<g id="node18" class="node">
<title>TodoTasksComponent</title>
<polygon fill="#ffffb3" stroke="black" points="1135.54,-160.8 992.46,-160.8 992.46,-124.8 1135.54,-124.8 1135.54,-160.8"/>
<text text-anchor="middle" x="1064" y="-138.6" font-family="Times,serif" font-size="14.00">TodoTasksComponent</text>
</g>
<!-- TodoTasksComponent&#45;&gt;ClassListModule -->
<g id="edge17" class="edge">
<title>TodoTasksComponent&#45;&gt;ClassListModule</title>
<path fill="none" stroke="black" d="M1064,-160.83C1064,-181.57 1064,-212.8 1064,-212.8 1064,-212.8 1833.24,-212.8 1833.24,-212.8"/>
<polygon fill="black" stroke="black" points="1833.24,-216.3 1843.24,-212.8 1833.24,-209.3 1833.24,-216.3"/>
</g>
<!-- ClassListRoutingModule -->
<g id="node20" class="node">
<title>ClassListRoutingModule</title>
<polygon fill="#8dd3c7" stroke="black" points="968.28,-160.8 965.28,-164.8 944.28,-164.8 941.28,-160.8 811.72,-160.8 811.72,-124.8 968.28,-124.8 968.28,-160.8"/>
<text text-anchor="middle" x="890" y="-138.6" font-family="Times,serif" font-size="14.00">ClassListRoutingModule</text>
</g>
<!-- ClassListRoutingModule&#45;&gt;ClassListModule -->
<g id="edge18" class="edge">
<title>ClassListRoutingModule&#45;&gt;ClassListModule</title>
<path fill="none" stroke="black" d="M890,-161.09C890,-183.01 890,-216.8 890,-216.8 890,-216.8 1833.31,-216.8 1833.31,-216.8"/>
<polygon fill="black" stroke="black" points="1833.31,-220.3 1843.31,-216.8 1833.31,-213.3 1833.31,-220.3"/>
</g>
<!-- MaterialModule -->
<g id="node21" class="node">
<title>MaterialModule</title>
<polygon fill="#8dd3c7" stroke="black" points="3105.47,-160.8 3102.47,-164.8 3081.47,-164.8 3078.47,-160.8 2998.53,-160.8 2998.53,-124.8 3105.47,-124.8 3105.47,-160.8"/>
<text text-anchor="middle" x="3052" y="-138.6" font-family="Times,serif" font-size="14.00">MaterialModule</text>
</g>
<!-- MaterialModule&#45;&gt;ClassListModule -->
<g id="edge19" class="edge">
<title>MaterialModule&#45;&gt;ClassListModule</title>
<path fill="none" stroke="black" d="M3034.17,-161.18C3034.17,-185.08 3034.17,-223.8 3034.17,-223.8 3034.17,-223.8 1964.91,-223.8 1964.91,-223.8"/>
<polygon fill="black" stroke="black" points="1964.91,-220.3 1954.91,-223.8 1964.91,-227.3 1964.91,-220.3"/>
</g>
<!-- EnglishModule -->
<g id="node32" class="node">
<title>EnglishModule</title>
<polygon fill="#8dd3c7" stroke="black" points="3938.33,-225.8 3935.33,-229.8 3914.33,-229.8 3911.33,-225.8 3835.67,-225.8 3835.67,-189.8 3938.33,-189.8 3938.33,-225.8"/>
<text text-anchor="middle" x="3887" y="-203.6" font-family="Times,serif" font-size="14.00">EnglishModule</text>
</g>
<!-- MaterialModule&#45;&gt;EnglishModule -->
<g id="edge31" class="edge">
<title>MaterialModule&#45;&gt;EnglishModule</title>
<path fill="none" stroke="black" d="M3069.83,-161.1C3069.83,-179.07 3069.83,-203.8 3069.83,-203.8 3069.83,-203.8 3825.57,-203.8 3825.57,-203.8"/>
<polygon fill="black" stroke="black" points="3825.57,-207.3 3835.57,-203.8 3825.57,-200.3 3825.57,-207.3"/>
</g>
<!-- showDetailService -->
<g id="node22" class="node">
<title>showDetailService</title>
<ellipse fill="#fdb462" stroke="black" cx="704" cy="-142.8" rx="83.94" ry="18"/>
<text text-anchor="middle" x="704" y="-138.6" font-family="Times,serif" font-size="14.00">showDetailService</text>
</g>
<!-- showDetailService&#45;&gt;ClassListModule -->
<g id="edge20" class="edge">
<title>showDetailService&#45;&gt;ClassListModule</title>
<path fill="none" stroke="black" d="M704,-161.12C704,-184.46 704,-221.8 704,-221.8 704,-221.8 1832.97,-221.8 1832.97,-221.8"/>
<polygon fill="black" stroke="black" points="1832.97,-225.3 1842.97,-221.8 1832.97,-218.3 1832.97,-225.3"/>
</g>
<!-- AuthContainerComponent -->
<g id="node23" class="node">
<title>AuthContainerComponent</title>
<polygon fill="#ffffb3" stroke="black" points="4799.04,-160.8 4634.96,-160.8 4634.96,-124.8 4799.04,-124.8 4799.04,-160.8"/>
<text text-anchor="middle" x="4717" y="-138.6" font-family="Times,serif" font-size="14.00">AuthContainerComponent</text>
</g>
<!-- AuthContainerComponent&#45;&gt;EnglishModule -->
<g id="edge21" class="edge">
<title>AuthContainerComponent&#45;&gt;EnglishModule</title>
<path fill="none" stroke="black" d="M4717,-161.05C4717,-183.82 4717,-219.8 4717,-219.8 4717,-219.8 3948.29,-219.8 3948.29,-219.8"/>
<polygon fill="black" stroke="black" points="3948.29,-216.3 3938.29,-219.8 3948.29,-223.3 3948.29,-216.3"/>
</g>
<!-- EmailValidationComponent -->
<g id="node24" class="node">
<title>EmailValidationComponent</title>
<polygon fill="#ffffb3" stroke="black" points="4616.87,-160.8 4443.13,-160.8 4443.13,-124.8 4616.87,-124.8 4616.87,-160.8"/>
<text text-anchor="middle" x="4530" y="-138.6" font-family="Times,serif" font-size="14.00">EmailValidationComponent</text>
</g>
<!-- EmailValidationComponent&#45;&gt;EnglishModule -->
<g id="edge22" class="edge">
<title>EmailValidationComponent&#45;&gt;EnglishModule</title>
<path fill="none" stroke="black" d="M4530,-161.08C4530,-182.12 4530,-213.8 4530,-213.8 4530,-213.8 3948.26,-213.8 3948.26,-213.8"/>
<polygon fill="black" stroke="black" points="3948.26,-210.3 3938.26,-213.8 3948.26,-217.3 3948.26,-210.3"/>
</g>
<!-- EnglishComponent -->
<g id="node25" class="node">
<title>EnglishComponent</title>
<polygon fill="#ffffb3" stroke="black" points="4425.11,-160.8 4300.89,-160.8 4300.89,-124.8 4425.11,-124.8 4425.11,-160.8"/>
<text text-anchor="middle" x="4363" y="-138.6" font-family="Times,serif" font-size="14.00">EnglishComponent</text>
</g>
<!-- EnglishComponent&#45;&gt;EnglishModule -->
<g id="edge23" class="edge">
<title>EnglishComponent&#45;&gt;EnglishModule</title>
<path fill="none" stroke="black" d="M4363,-160.91C4363,-180.14 4363,-207.8 4363,-207.8 4363,-207.8 3948.39,-207.8 3948.39,-207.8"/>
<polygon fill="black" stroke="black" points="3948.39,-204.3 3938.39,-207.8 3948.39,-211.3 3948.39,-204.3"/>
</g>
<!-- HeaderComponent -->
<g id="node26" class="node">
<title>HeaderComponent</title>
<polygon fill="#ffffb3" stroke="black" points="4282.74,-160.8 4161.26,-160.8 4161.26,-124.8 4282.74,-124.8 4282.74,-160.8"/>
<text text-anchor="middle" x="4222" y="-138.6" font-family="Times,serif" font-size="14.00">HeaderComponent</text>
</g>
<!-- HeaderComponent&#45;&gt;EnglishModule -->
<g id="edge24" class="edge">
<title>HeaderComponent&#45;&gt;EnglishModule</title>
<path fill="none" stroke="black" d="M4222,-160.82C4222,-178.17 4222,-201.8 4222,-201.8 4222,-201.8 3948.24,-201.8 3948.24,-201.8"/>
<polygon fill="black" stroke="black" points="3948.24,-198.3 3938.24,-201.8 3948.24,-205.3 3948.24,-198.3"/>
</g>
<!-- LoginComponent -->
<g id="node27" class="node">
<title>LoginComponent</title>
<polygon fill="#ffffb3" stroke="black" points="4143.28,-160.8 4028.72,-160.8 4028.72,-124.8 4143.28,-124.8 4143.28,-160.8"/>
<text text-anchor="middle" x="4086" y="-138.6" font-family="Times,serif" font-size="14.00">LoginComponent</text>
</g>
<!-- LoginComponent&#45;&gt;EnglishModule -->
<g id="edge25" class="edge">
<title>LoginComponent&#45;&gt;EnglishModule</title>
<path fill="none" stroke="black" d="M4086,-161.04C4086,-176.37 4086,-195.8 4086,-195.8 4086,-195.8 3948.25,-195.8 3948.25,-195.8"/>
<polygon fill="black" stroke="black" points="3948.25,-192.3 3938.25,-195.8 3948.25,-199.3 3948.25,-192.3"/>
</g>
<!-- MainComponent -->
<g id="node28" class="node">
<title>MainComponent</title>
<polygon fill="#ffffb3" stroke="black" points="4010.38,-160.8 3899.62,-160.8 3899.62,-124.8 4010.38,-124.8 4010.38,-160.8"/>
<text text-anchor="middle" x="3955" y="-138.6" font-family="Times,serif" font-size="14.00">MainComponent</text>
</g>
<!-- MainComponent&#45;&gt;EnglishModule -->
<g id="edge26" class="edge">
<title>MainComponent&#45;&gt;EnglishModule</title>
<path fill="none" stroke="black" d="M3918.86,-160.91C3918.86,-160.91 3918.86,-179.79 3918.86,-179.79"/>
<polygon fill="black" stroke="black" points="3915.36,-179.79 3918.86,-189.79 3922.36,-179.79 3915.36,-179.79"/>
</g>
<!-- ServiceComponent -->
<g id="node29" class="node">
<title>ServiceComponent</title>
<polygon fill="#ffffb3" stroke="black" points="3881.81,-160.8 3758.19,-160.8 3758.19,-124.8 3881.81,-124.8 3881.81,-160.8"/>
<text text-anchor="middle" x="3820" y="-138.6" font-family="Times,serif" font-size="14.00">ServiceComponent</text>
</g>
<!-- ServiceComponent&#45;&gt;EnglishModule -->
<g id="edge27" class="edge">
<title>ServiceComponent&#45;&gt;EnglishModule</title>
<path fill="none" stroke="black" d="M3858.75,-160.91C3858.75,-160.91 3858.75,-179.79 3858.75,-179.79"/>
<polygon fill="black" stroke="black" points="3855.25,-179.79 3858.75,-189.79 3862.25,-179.79 3855.25,-179.79"/>
</g>
<!-- SignupComponent -->
<g id="node30" class="node">
<title>SignupComponent</title>
<polygon fill="#ffffb3" stroke="black" points="3740.51,-160.8 3619.49,-160.8 3619.49,-124.8 3740.51,-124.8 3740.51,-160.8"/>
<text text-anchor="middle" x="3680" y="-138.6" font-family="Times,serif" font-size="14.00">SignupComponent</text>
</g>
<!-- SignupComponent&#45;&gt;EnglishModule -->
<g id="edge28" class="edge">
<title>SignupComponent&#45;&gt;EnglishModule</title>
<path fill="none" stroke="black" d="M3680,-160.85C3680,-175.17 3680,-192.8 3680,-192.8 3680,-192.8 3825.83,-192.8 3825.83,-192.8"/>
<polygon fill="black" stroke="black" points="3825.83,-196.3 3835.83,-192.8 3825.83,-189.3 3825.83,-196.3"/>
</g>
<!-- ValidationRedirectComponent -->
<g id="node31" class="node">
<title>ValidationRedirectComponent</title>
<polygon fill="#ffffb3" stroke="black" points="3601.85,-160.8 3414.15,-160.8 3414.15,-124.8 3601.85,-124.8 3601.85,-160.8"/>
<text text-anchor="middle" x="3508" y="-138.6" font-family="Times,serif" font-size="14.00">ValidationRedirectComponent</text>
</g>
<!-- ValidationRedirectComponent&#45;&gt;EnglishModule -->
<g id="edge29" class="edge">
<title>ValidationRedirectComponent&#45;&gt;EnglishModule</title>
<path fill="none" stroke="black" d="M3508,-161.04C3508,-176.37 3508,-195.8 3508,-195.8 3508,-195.8 3825.49,-195.8 3825.49,-195.8"/>
<polygon fill="black" stroke="black" points="3825.49,-199.3 3835.49,-195.8 3825.49,-192.3 3825.49,-199.3"/>
</g>
<!-- EnglishRoutingModule -->
<g id="node33" class="node">
<title>EnglishRoutingModule</title>
<polygon fill="#8dd3c7" stroke="black" points="3270.95,-160.8 3267.95,-164.8 3246.95,-164.8 3243.95,-160.8 3123.05,-160.8 3123.05,-124.8 3270.95,-124.8 3270.95,-160.8"/>
<text text-anchor="middle" x="3197" y="-138.6" font-family="Times,serif" font-size="14.00">EnglishRoutingModule</text>
</g>
<!-- EnglishRoutingModule&#45;&gt;EnglishModule -->
<g id="edge30" class="edge">
<title>EnglishRoutingModule&#45;&gt;EnglishModule</title>
<path fill="none" stroke="black" d="M3197,-160.82C3197,-178.17 3197,-201.8 3197,-201.8 3197,-201.8 3825.7,-201.8 3825.7,-201.8"/>
<polygon fill="black" stroke="black" points="3825.7,-205.3 3835.7,-201.8 3825.7,-198.3 3825.7,-205.3"/>
</g>
<!-- ServiceModule -->
<g id="node34" class="node">
<title>ServiceModule</title>
<polygon fill="#8dd3c7" stroke="black" points="3389.53,-160.8 3386.53,-164.8 3365.53,-164.8 3362.53,-160.8 3288.47,-160.8 3288.47,-124.8 3389.53,-124.8 3389.53,-160.8"/>
<text text-anchor="middle" x="3339" y="-138.6" font-family="Times,serif" font-size="14.00">ServiceModule</text>
</g>
<!-- ServiceModule&#45;&gt;EnglishModule -->
<g id="edge32" class="edge">
<title>ServiceModule&#45;&gt;EnglishModule</title>
<path fill="none" stroke="black" d="M3339,-160.83C3339,-177.2 3339,-198.8 3339,-198.8 3339,-198.8 3825.45,-198.8 3825.45,-198.8"/>
<polygon fill="black" stroke="black" points="3825.45,-202.3 3835.45,-198.8 3825.45,-195.3 3825.45,-202.3"/>
</g>
<!-- HttpService -->
<g id="node35" class="node">
<title>HttpService</title>
<ellipse fill="#fdb462" stroke="black" cx="3420" cy="-66.8" rx="57.32" ry="18"/>
<text text-anchor="middle" x="3420" y="-62.6" font-family="Times,serif" font-size="14.00">HttpService</text>
</g>
<!-- HttpService&#45;&gt;ServiceModule -->
<g id="edge33" class="edge">
<title>HttpService&#45;&gt;ServiceModule</title>
<path fill="none" stroke="black" d="M3376.3,-78.68C3376.3,-78.68 3376.3,-114.79 3376.3,-114.79"/>
<polygon fill="black" stroke="black" points="3372.8,-114.79 3376.3,-124.79 3379.8,-114.79 3372.8,-114.79"/>
</g>
<!-- NotificationService -->
<g id="node36" class="node">
<title>NotificationService</title>
<ellipse fill="#fdb462" stroke="black" cx="3258" cy="-66.8" rx="86.81" ry="18"/>
<text text-anchor="middle" x="3258" y="-62.6" font-family="Times,serif" font-size="14.00">NotificationService</text>
</g>
<!-- NotificationService&#45;&gt;ServiceModule -->
<g id="edge34" class="edge">
<title>NotificationService&#45;&gt;ServiceModule</title>
<path fill="none" stroke="black" d="M3316.45,-80.39C3316.45,-80.39 3316.45,-114.76 3316.45,-114.76"/>
<polygon fill="black" stroke="black" points="3312.95,-114.76 3316.45,-124.76 3319.95,-114.76 3312.95,-114.76"/>
</g>
</g>
</svg>
